<svg width="261" height="72" viewBox="0 0 261 72" fill="none" xmlns="http://www.w3.org/2000/svg">
<g clip-path="url(#clip0_1_2)">
<path d="M17 13V6.00002H21.3333V8.94738H27.8333V6.00002H32.1667V8.94738H38.6667V6.00002H43V13H17Z" fill="#D8AE5E"/>
<path d="M7.02744 19H53L53 29.5704C53 35.8744 52.9761 41.3271 52.5588 46.0036C52.1409 50.6865 51.3402 54.4145 49.8877 57.3183C48.468 60.1566 46.3952 62.2705 43.2519 63.7131C40.0453 65.1847 35.6283 66 29.4893 66C23.4782 66 19.2255 64.7414 16.1772 62.7805C13.1415 60.8277 11.1306 58.0696 9.78501 54.7606C7.27298 48.5831 7.17651 40.8222 7.08516 33.4741C7.07624 32.7565 7.06737 32.0428 7.0563 31.3349C6.99297 27.2846 6.99296 23.708 7.00879 21.1444C7.01389 20.3181 7.02064 19.5972 7.02744 19Z" stroke="url(#paint0_linear_1_2)" stroke-width="4"/>
<path d="M21 42H13C13 42 13 47.5 14.5 51.5C16 55.5 21 59 21 59V42Z" fill="#F2CB80"/>
<path d="M35 35H25V60H35V35Z" fill="url(#paint1_radial_1_2)"/>
<path d="M47 28H39V59C39 59 47 57 47 46.5V28Z" fill="#D8AE5E"/>
<path d="M87.8242 23.3379L87.0068 25.3682L82.8276 33.8716L80.6655 34.0034L76.4863 25.2363L75.8008 23.3379V36.8379L78.3716 37.3784V39H71.0811V37.3784L73.375 36.8379V22.2569L71.0811 21.7163V20.2398L77.1587 20.0947L82.0366 30.9053L87.1387 20.2398L92.8208 20.0947V21.7163L90.5137 22.2569V36.8379L92.8208 37.3784V39H85.2534V37.3784L87.8242 36.8379V23.3379ZM101.852 36.0337L104.818 26.7129L102.933 26.3042V24.8277L109.327 24.6958V26.3042L107.573 26.5811L103.75 37.273L103.5 37.919C102.902 39.5186 102.344 40.8281 101.825 41.8477C101.307 42.8672 100.604 43.7285 99.7158 44.4317C98.8369 45.1348 97.7515 45.4863 96.4595 45.4863C96.1694 45.4863 95.8354 45.4644 95.4575 45.4204C95.0796 45.3853 94.8335 45.3589 94.7192 45.3413L94.9697 43.4561H96.3145C97.1934 43.4561 97.9624 43.0869 98.6216 42.3486C99.2808 41.6104 99.9443 40.5117 100.612 39.0527L95.7739 26.7129L94.1523 26.3042V24.8277L100.507 24.6958V26.3042L98.6084 26.5811L101.852 36.0337ZM128.113 28.3345V30.4966H121.904V36.8379L124.606 37.3784V39H116.775V37.3784L119.069 36.8379V22.2569L116.775 21.7163V20.2398L121.904 20.0947H130.144V24.5508H128.39L127.705 22.2569H121.904V28.3345H128.113ZM147.968 38.8682L143.512 39L143.248 37.1148C142.712 37.5982 141.982 38.0772 141.06 38.5518C140.137 39.0264 139.201 39.2637 138.251 39.2637C136.81 39.2637 135.729 38.8418 135.008 37.9981C134.288 37.1543 133.927 35.9678 133.927 34.4385V26.8447L131.633 26.3042V24.8277L136.63 24.6958V34.1616C136.63 35.1196 136.819 35.8272 137.197 36.2842C137.575 36.7412 138.194 36.9697 139.056 36.9697C139.741 36.9697 140.37 36.8159 140.941 36.5083C141.521 36.1919 142.004 35.8447 142.391 35.4668C142.778 35.0889 142.971 34.8823 142.971 34.8472V26.8447L140.677 26.3042V24.8277L145.674 24.6958V36.8379L147.968 37.3784V38.8682ZM154.428 26.6074C154.99 26.124 155.724 25.6406 156.629 25.1572C157.543 24.6651 158.484 24.419 159.451 24.419C160.892 24.419 161.973 24.8496 162.694 25.711C163.415 26.5635 163.775 27.7544 163.775 29.2837V36.8379L165.792 37.5103V39H159.319V37.5103L161.072 36.8379V29.5474C161.072 28.5718 160.883 27.8555 160.505 27.3985C160.127 26.9414 159.508 26.7129 158.646 26.7129C157.961 26.7129 157.328 26.8755 156.748 27.2007C156.177 27.5259 155.698 27.8775 155.311 28.2554C154.924 28.6333 154.731 28.8399 154.731 28.875V36.8379L156.484 37.5103V39H149.734V37.5103L152.028 36.8379V26.8447L149.734 26.3042V24.8277L154.19 24.6958L154.428 26.6074ZM182.535 38.8682L177.947 39L177.736 37.4575C176.532 38.6616 175.117 39.2637 173.491 39.2637C171.602 39.2637 170.182 38.6397 169.233 37.3916C168.292 36.1436 167.822 34.4297 167.822 32.25C167.822 29.8594 168.424 27.9566 169.628 26.5415C170.841 25.1265 172.625 24.419 174.981 24.419C175.86 24.419 176.712 24.564 177.539 24.854V20.3716L175.245 19.8311V18.3413L180.241 18.2095V36.8379L182.535 37.3784V38.8682ZM177.539 27.1216C177.486 27.0864 177.35 27.0293 177.13 26.9502C176.919 26.8623 176.603 26.7788 176.181 26.6997C175.759 26.6206 175.267 26.5811 174.704 26.5811C172.006 26.5811 170.657 28.3828 170.657 31.9863C170.657 33.5684 170.929 34.8208 171.474 35.7437C172.028 36.6577 172.88 37.1148 174.032 37.1148C174.717 37.1148 175.319 36.9653 175.838 36.6665C176.365 36.3677 176.778 36.0425 177.077 35.6909C177.385 35.3394 177.539 35.1372 177.539 35.0845V27.1216ZM187.136 32.25C187.136 33.7266 187.497 34.9087 188.217 35.7964C188.938 36.6753 189.883 37.1148 191.052 37.1148C191.843 37.1148 192.577 37.0049 193.253 36.7852C193.93 36.5654 194.488 36.3281 194.928 36.0733C195.367 35.8096 195.587 35.6602 195.587 35.625L196.536 37.0225C196.536 37.0576 196.242 37.2774 195.653 37.6817C195.073 38.0772 194.352 38.4419 193.491 38.7759C192.638 39.1011 191.733 39.2637 190.775 39.2637C188.648 39.2637 187.035 38.6221 185.937 37.3389C184.847 36.0557 184.302 34.2715 184.302 31.9863C184.302 30.5625 184.579 29.2749 185.132 28.1236C185.695 26.9722 186.477 26.0669 187.479 25.4077C188.49 24.7486 189.637 24.419 190.92 24.419C194.699 24.419 196.589 26.5327 196.589 30.7603C196.589 31.0503 196.571 31.3403 196.536 31.6304C196.501 31.9204 196.475 32.1094 196.457 32.1973L187.136 32.25ZM193.728 30.2197C193.728 29.1211 193.491 28.2334 193.016 27.5567C192.55 26.8711 191.803 26.5283 190.775 26.5283C189.729 26.5283 188.898 26.8799 188.283 27.583C187.677 28.2861 187.33 29.1651 187.242 30.2197H193.728ZM213.991 38.8682L209.403 39L209.192 37.4575C207.988 38.6616 206.573 39.2637 204.947 39.2637C203.058 39.2637 201.638 38.6397 200.689 37.3916C199.749 36.1436 199.278 34.4297 199.278 32.25C199.278 29.8594 199.88 27.9566 201.084 26.5415C202.297 25.1265 204.082 24.419 206.437 24.419C207.316 24.419 208.168 24.564 208.995 24.854V20.3716L206.701 19.8311V18.3413L211.697 18.2095V36.8379L213.991 37.3784V38.8682ZM208.995 27.1216C208.942 27.0864 208.806 27.0293 208.586 26.9502C208.375 26.8623 208.059 26.7788 207.637 26.6997C207.215 26.6206 206.723 26.5811 206.16 26.5811C203.462 26.5811 202.113 28.3828 202.113 31.9863C202.113 33.5684 202.385 34.8208 202.93 35.7437C203.484 36.6577 204.336 37.1148 205.488 37.1148C206.173 37.1148 206.775 36.9653 207.294 36.6665C207.821 36.3677 208.234 36.0425 208.533 35.6909C208.841 35.3394 208.995 35.1372 208.995 35.0845V27.1216ZM233.318 28.3345V30.4966H227.109V36.8379L229.812 37.3784V39H221.98V37.3784L224.274 36.8379V22.2569L221.98 21.7163V20.2398L227.109 20.0947H235.349V24.5508H233.595L232.91 22.2569H227.109V28.3345H233.318ZM243.997 29.4155L239 22.2569L236.97 21.7163V20.2398L244.129 20.0947V21.7163L242.375 22.2569L245.882 27.3853L249.389 22.2569L247.504 21.7163V20.2398L254.663 20.0947V21.7163L252.224 22.2569L247.372 29.2837L252.632 36.8379L254.926 37.3784V39H247.636V37.3784L249.257 36.9697L245.474 31.4458L241.426 36.8379L243.72 37.3784V39H236.562V37.3784L238.328 36.9697L243.997 29.4155Z" fill="white"/>
<path d="M71.8184 57.1592L73.2198 56.8789V49.3184H71.4014L71.0528 50.7197H70.1368V48.1973H77.7725V50.7197H76.8633L76.5079 49.3184H74.6895V56.8789L76.0909 57.1592V58H71.8184V57.1592ZM80.8555 51.4512C81.1563 51.196 81.5255 50.9636 81.963 50.7539C82.4005 50.5443 82.8471 50.4395 83.3028 50.4395C84.0502 50.4395 84.6107 50.6628 84.9844 51.1094C85.3581 51.5514 85.545 52.169 85.545 52.9619V56.8789L86.5977 57.2276V58H83.2344V57.2276L84.1436 56.8926V53.0986C84.1436 52.5928 84.0502 52.2214 83.8633 51.9844C83.6765 51.7474 83.3643 51.6289 82.9268 51.6289C82.5714 51.6289 82.2387 51.7132 81.9288 51.8819C81.6234 52.0505 81.3682 52.2328 81.1631 52.4287C80.9581 52.6247 80.8555 52.7318 80.8555 52.75V56.8789L81.7647 57.2276V58H78.2647V57.2276L79.4542 56.8789V48.3408L78.2647 48.0606V47.2881L80.8555 47.2197V51.4512ZM89.0518 54.5C89.0518 55.2656 89.2387 55.8786 89.6124 56.3389C89.9861 56.7946 90.476 57.0225 91.0821 57.0225C91.4922 57.0225 91.8728 56.9655 92.2237 56.8516C92.5746 56.7376 92.864 56.6146 93.0919 56.4824C93.3197 56.3457 93.4337 56.2682 93.4337 56.25L93.9258 56.9746C93.9258 56.9929 93.7732 57.1068 93.4678 57.3164C93.1671 57.5215 92.7934 57.7106 92.3467 57.8838C91.9047 58.0524 91.4353 58.1367 90.9385 58.1367C89.8357 58.1367 88.9994 57.8041 88.4297 57.1387C87.8646 56.4733 87.5821 55.5482 87.5821 54.3633C87.5821 53.625 87.7256 52.9574 88.0128 52.3604C88.3044 51.7634 88.71 51.294 89.2296 50.9522C89.7536 50.6104 90.3484 50.4395 91.0137 50.4395C92.9734 50.4395 93.9532 51.5355 93.9532 53.7276C93.9532 53.8779 93.9441 54.0283 93.9258 54.1787C93.9076 54.3291 93.8939 54.4271 93.8848 54.4727L89.0518 54.5ZM92.4698 53.4473C92.4698 52.8776 92.3467 52.4173 92.1006 52.0664C91.8591 51.711 91.4717 51.5332 90.9385 51.5332C90.3962 51.5332 89.9656 51.7155 89.6465 52.0801C89.3321 52.4447 89.1521 52.9004 89.1065 53.4473H92.4698ZM100.803 51.6016C101.067 51.3145 101.379 51.0501 101.739 50.8086C102.104 50.5625 102.498 50.4395 102.922 50.4395C103.127 50.4395 103.321 50.4554 103.503 50.4873C103.69 50.5192 103.843 50.5534 103.961 50.5899C104.079 50.6218 104.152 50.6423 104.18 50.6514L104.111 52.6817H103.195L102.99 51.6289C102.525 51.6289 102.124 51.7406 101.787 51.9639C101.45 52.1872 101.174 52.4401 100.96 52.7227V56.8789L102.361 57.2276V58H98.3692V57.2276L99.5587 56.8789V51.6973L98.3692 51.417V50.6514L100.68 50.583L100.803 51.6016ZM106.347 54.5C106.347 55.2656 106.534 55.8786 106.907 56.3389C107.281 56.7946 107.771 57.0225 108.377 57.0225C108.787 57.0225 109.168 56.9655 109.519 56.8516C109.87 56.7376 110.159 56.6146 110.387 56.4824C110.615 56.3457 110.729 56.2682 110.729 56.25L111.221 56.9746C111.221 56.9929 111.068 57.1068 110.763 57.3164C110.462 57.5215 110.088 57.7106 109.642 57.8838C109.2 58.0524 108.73 58.1367 108.233 58.1367C107.131 58.1367 106.294 57.8041 105.725 57.1387C105.16 56.4733 104.877 55.5482 104.877 54.3633C104.877 53.625 105.021 52.9574 105.308 52.3604C105.599 51.7634 106.005 51.294 106.524 50.9522C107.049 50.6104 107.643 50.4395 108.309 50.4395C110.268 50.4395 111.248 51.5355 111.248 53.7276C111.248 53.8779 111.239 54.0283 111.221 54.1787C111.203 54.3291 111.189 54.4271 111.18 54.4727L106.347 54.5ZM109.765 53.4473C109.765 52.8776 109.642 52.4173 109.396 52.0664C109.154 51.711 108.767 51.5332 108.233 51.5332C107.691 51.5332 107.26 51.7155 106.941 52.0801C106.627 52.4447 106.447 52.9004 106.401 53.4473H109.765ZM116.99 51.6973H114.96V56.1953C114.96 56.765 115.192 57.0498 115.657 57.0498C115.958 57.0498 116.323 56.9336 116.751 56.7012L117.127 57.4395C116.494 57.9043 115.84 58.1367 115.165 58.1367C114.691 58.1367 114.304 57.9818 114.003 57.6719C113.707 57.3574 113.559 56.8379 113.559 56.1133V51.6973H112.157V50.7881L113.559 50.6514V48.8877L114.96 48.6074V50.6514H116.99V51.6973ZM118.453 51C118.526 50.9727 118.708 50.9157 119 50.8291C119.296 50.738 119.645 50.6514 120.046 50.5694C120.447 50.4828 120.825 50.4395 121.181 50.4395C122.028 50.4395 122.671 50.6081 123.108 50.9453C123.551 51.2826 123.772 51.8386 123.772 52.6133V56.8789L124.893 57.1592V57.9317L122.719 58L122.425 57.0225C122.124 57.3233 121.775 57.5853 121.379 57.8086C120.987 58.0274 120.57 58.1367 120.128 58.1367C119.467 58.1367 118.952 57.9544 118.583 57.5899C118.214 57.2207 118.029 56.7035 118.029 56.0381C118.029 55.2634 118.307 54.7097 118.863 54.377C119.419 54.0397 120.215 53.8711 121.249 53.8711H122.37V52.75C122.37 52.3399 122.256 52.0277 122.028 51.8135C121.801 51.5993 121.47 51.4922 121.037 51.4922C120.787 51.4922 120.556 51.5082 120.347 51.5401C120.137 51.572 119.971 51.6039 119.848 51.6358C119.729 51.6677 119.656 51.6882 119.629 51.6973L119.431 52.75H118.522L118.453 51ZM121.393 54.7803C120.7 54.7803 120.203 54.8737 119.902 55.0606C119.606 55.2474 119.458 55.5505 119.458 55.9697C119.458 56.2888 119.549 56.544 119.732 56.7354C119.914 56.9268 120.164 57.0225 120.483 57.0225C120.793 57.0225 121.087 56.9382 121.365 56.7695C121.643 56.6009 121.88 56.4186 122.076 56.2227C122.272 56.0267 122.37 55.9196 122.37 55.9014V54.7803H121.393ZM126.786 48.2725C126.786 47.9626 126.875 47.721 127.053 47.5479C127.231 47.3747 127.445 47.2881 127.695 47.2881C128.301 47.2881 128.605 47.6162 128.605 48.2725C128.605 48.5733 128.511 48.8125 128.324 48.9902C128.137 49.1634 127.928 49.25 127.695 49.25C127.417 49.25 127.196 49.1634 127.032 48.9902C126.868 48.8171 126.786 48.5778 126.786 48.2725ZM129.514 58H125.877V57.2276L127.066 56.8789V51.6973L125.877 51.417V50.6514L128.468 50.583V56.8789L129.514 57.2276V58ZM134.231 58H130.355V57.2276L131.544 56.8789V48.3408L130.355 48.0606V47.2881L132.973 47.2197V56.8789L134.231 57.2276V58ZM140.369 51.3623C141.03 50.7471 141.739 50.4395 142.495 50.4395C143.484 50.4395 144.232 50.7676 144.737 51.4238C145.248 52.0755 145.503 52.9619 145.503 54.083C145.503 55.3226 145.186 56.3093 144.553 57.043C143.919 57.7722 142.976 58.1367 141.723 58.1367C141.322 58.1367 140.902 58.0729 140.465 57.9453V60.167L141.935 60.4473V61.2197H137.942V60.4473L139.064 60.167V51.6973L137.874 51.417V50.6514L140.253 50.583L140.369 51.3623ZM140.465 56.7422C140.483 56.7604 140.545 56.7901 140.649 56.8311C140.759 56.8721 140.923 56.9154 141.142 56.961C141.365 57.002 141.629 57.0225 141.935 57.0225C143.334 57.0225 144.033 56.0882 144.033 54.2197C144.033 53.4085 143.881 52.7637 143.575 52.2852C143.274 51.8021 142.821 51.5606 142.215 51.5606C141.841 51.5606 141.522 51.6335 141.258 51.7793C140.998 51.9206 140.8 52.0755 140.663 52.2442C140.531 52.4128 140.465 52.5108 140.465 52.5381V56.7422ZM149.133 51.6016C149.397 51.3145 149.709 51.0501 150.069 50.8086C150.434 50.5625 150.828 50.4395 151.252 50.4395C151.457 50.4395 151.651 50.4554 151.833 50.4873C152.02 50.5192 152.173 50.5534 152.291 50.5899C152.41 50.6218 152.482 50.6423 152.51 50.6514L152.441 52.6817H151.525L151.32 51.6289C150.856 51.6289 150.454 51.7406 150.117 51.9639C149.78 52.1872 149.504 52.4401 149.29 52.7227V56.8789L150.691 57.2276V58H146.699V57.2276L147.889 56.8789V51.6973L146.699 51.417V50.6514L149.01 50.583L149.133 51.6016ZM156.775 50.4395C157.81 50.4395 158.617 50.7744 159.195 51.4444C159.774 52.1097 160.064 53.0121 160.064 54.1514C160.064 54.9352 159.918 55.6302 159.626 56.2363C159.339 56.8425 158.929 57.3119 158.396 57.6445C157.867 57.9727 157.256 58.1367 156.564 58.1367C155.502 58.1367 154.677 57.8177 154.089 57.1797C153.501 56.5417 153.207 55.6029 153.207 54.3633C153.207 53.5794 153.357 52.8913 153.658 52.2988C153.964 51.7018 154.385 51.2438 154.923 50.9248C155.461 50.6013 156.078 50.4395 156.775 50.4395ZM156.707 51.5606C156.014 51.5606 155.502 51.7884 155.169 52.2442C154.841 52.6953 154.677 53.3766 154.677 54.2881C154.677 56.1065 155.331 57.0179 156.639 57.0225C157.322 57.0225 157.819 56.7901 158.129 56.3252C158.439 55.8558 158.594 55.154 158.594 54.2197C158.594 52.447 157.965 51.5606 156.707 51.5606ZM163.475 51.3623C164.135 50.7471 164.844 50.4395 165.601 50.4395C166.59 50.4395 167.337 50.7676 167.843 51.4238C168.353 52.0755 168.608 52.9619 168.608 54.083C168.608 55.3226 168.292 56.3093 167.658 57.043C167.025 57.7722 166.081 58.1367 164.828 58.1367C164.427 58.1367 164.008 58.0729 163.57 57.9453V60.167L165.04 60.4473V61.2197H161.048V60.4473L162.169 60.167V51.6973L160.98 51.417V50.6514L163.358 50.583L163.475 51.3623ZM163.57 56.7422C163.589 56.7604 163.65 56.7901 163.755 56.8311C163.864 56.8721 164.028 56.9154 164.247 56.961C164.47 57.002 164.735 57.0225 165.04 57.0225C166.439 57.0225 167.139 56.0882 167.139 54.2197C167.139 53.4085 166.986 52.7637 166.681 52.2852C166.38 51.8021 165.926 51.5606 165.32 51.5606C164.947 51.5606 164.628 51.6335 164.363 51.7793C164.104 51.9206 163.905 52.0755 163.769 52.2442C163.636 52.4128 163.57 52.5108 163.57 52.5381V56.7422ZM174.357 49.9473C174.357 48.9857 174.62 48.2679 175.144 47.794C175.668 47.32 176.481 47.083 177.584 47.083C178.022 47.083 178.448 47.1172 178.862 47.1856C179.277 47.2539 179.617 47.3268 179.881 47.4043C180.15 47.4772 180.316 47.5274 180.38 47.5547V49.25H179.259L179.054 48.2451C178.981 48.236 178.808 48.2155 178.534 48.1836C178.261 48.1472 177.967 48.1289 177.652 48.1289C176.395 48.1289 175.763 48.6416 175.759 49.667V50.6514L180.592 50.583V56.8789L181.638 57.2276V58H178.138V57.2276L179.19 56.8789V51.6973H175.759V56.8789L176.907 57.2276V58H173.168V57.2276L174.357 56.8789V51.6973H173.1V50.7881L174.357 50.6514V49.9473ZM185.131 51.6016C185.395 51.3145 185.707 51.0501 186.067 50.8086C186.432 50.5625 186.826 50.4395 187.25 50.4395C187.455 50.4395 187.649 50.4554 187.831 50.4873C188.018 50.5192 188.171 50.5534 188.289 50.5899C188.408 50.6218 188.481 50.6423 188.508 50.6514L188.44 52.6817H187.523L187.318 51.6289C186.854 51.6289 186.453 51.7406 186.115 51.9639C185.778 52.1872 185.502 52.4401 185.288 52.7227V56.8789L186.69 57.2276V58H182.697V57.2276L183.887 56.8789V51.6973L182.697 51.417V50.6514L185.008 50.583L185.131 51.6016ZM191.639 51.5742C191.903 51.3236 192.268 51.0729 192.732 50.8223C193.197 50.5671 193.678 50.4395 194.175 50.4395C195.118 50.4395 195.768 50.8405 196.123 51.6426C196.356 51.4102 196.709 51.1527 197.183 50.8701C197.661 50.583 198.176 50.4395 198.728 50.4395C199.475 50.4395 200.022 50.6605 200.368 51.1026C200.719 51.5401 200.895 52.1598 200.895 52.9619V56.8789L201.947 57.2276V58H198.584V57.2276L199.493 56.8789V53.0986C199.493 52.5837 199.404 52.21 199.227 51.9776C199.049 51.7451 198.741 51.6289 198.304 51.6289C197.948 51.6289 197.625 51.7132 197.333 51.8819C197.046 52.0505 196.809 52.2328 196.622 52.4287C196.435 52.6247 196.342 52.7318 196.342 52.75V56.8789L197.258 57.2276V58H194.031V57.2276L194.947 56.8789V53.0986C194.947 52.5837 194.858 52.21 194.681 51.9776C194.503 51.7451 194.195 51.6289 193.758 51.6289C193.402 51.6289 193.079 51.7132 192.787 51.8819C192.5 52.0505 192.263 52.2328 192.076 52.4287C191.889 52.6247 191.796 52.7318 191.796 52.75V56.8789L192.705 57.2276V58H189.205V57.2276L190.395 56.8789V51.6973L189.205 51.417V50.6514L191.516 50.583L191.639 51.5742Z" fill="#9C7834"/>
</g>
<defs>
<linearGradient id="paint0_linear_1_2" x1="55" y1="16" x2="5.00002" y2="65.5" gradientUnits="userSpaceOnUse">
<stop stop-color="#DEB25F"/>
<stop offset="1" stop-color="#F3CC81"/>
</linearGradient>
<radialGradient id="paint1_radial_1_2" cx="0" cy="0" r="1" gradientUnits="userSpaceOnUse" gradientTransform="translate(35 35) rotate(111.801) scale(26.9258 10.7703)">
<stop stop-color="#D8AE5E"/>
<stop offset="1" stop-color="#F4CD83"/>
</radialGradient>
<clipPath id="clip0_1_2">
<rect width="72" height="261" fill="white" transform="translate(261 1.52588e-05) rotate(90)"/>
</clipPath>
</defs>
</svg>
