<svg width="155" height="36" viewBox="0 0 155 36" fill="none" xmlns="http://www.w3.org/2000/svg">
<path d="M154.172 7.34677V22.9488H148.974V20.1101C148.535 21.1781 147.868 21.9923 146.971 22.5495C146.074 23.1036 144.964 23.3822 143.649 23.3822C142.473 23.3822 141.449 23.0912 140.573 22.5062C139.697 21.9211 139.021 21.1193 138.545 20.1008C138.072 19.0824 137.833 17.9308 137.833 16.643C137.818 15.315 138.069 14.1231 138.587 13.0675C139.103 12.0119 139.833 11.1885 140.773 10.5972C141.712 10.0059 142.785 9.70875 143.988 9.70875C146.465 9.70875 148.126 10.8077 148.974 13.0025V7.34677H154.172ZM148.198 18.5406C148.729 18.0144 148.992 17.3302 148.992 16.4944C148.992 15.6864 148.735 15.0271 148.22 14.5225C147.704 14.0179 146.998 13.764 146.11 13.764C145.234 13.764 144.534 14.021 144.01 14.5349C143.485 15.0487 143.225 15.7143 143.225 16.5377C143.225 17.3612 143.485 18.0329 144.01 18.553C144.534 19.0731 145.225 19.3331 146.089 19.3331C146.965 19.33 147.668 19.0669 148.198 18.5406Z" fill="#5865F2"/>
<path d="M136.903 10.5105V15.1911C136.363 14.8289 135.666 14.6493 134.802 14.6493C133.672 14.6493 132.799 14.9991 132.193 15.6988C131.583 16.3984 131.28 17.488 131.28 18.9616V22.9488H126.082V10.2721H131.174V14.3026C131.456 12.8291 131.914 11.7425 132.544 11.0398C133.172 10.3402 133.984 9.99039 134.972 9.99039C135.721 9.99039 136.363 10.1637 136.903 10.5105Z" fill="#5865F2"/>
<path d="M111.731 22.4721C110.506 21.8654 109.573 21.0358 108.93 19.9801C108.288 18.9245 107.964 17.7482 107.964 16.448C107.964 15.1478 108.285 13.987 108.93 12.9685C109.576 11.95 110.503 11.1513 111.722 10.5725C112.937 9.99358 114.389 9.70568 116.071 9.70568C117.753 9.70568 119.205 9.99358 120.421 10.5725C121.636 11.1513 122.563 11.9438 123.2 12.9561C123.836 13.9684 124.155 15.1293 124.155 16.4449C124.155 17.7451 123.836 18.9214 123.2 19.977C122.563 21.0327 121.633 21.8623 120.408 22.469C119.184 23.0758 117.738 23.3792 116.068 23.3792C114.398 23.3792 112.952 23.0789 111.731 22.4721ZM118.178 18.6273C118.693 18.1011 118.954 17.4046 118.954 16.5378C118.954 15.671 118.696 14.9807 118.178 14.4699C117.662 13.956 116.959 13.6991 116.068 13.6991C115.162 13.6991 114.453 13.956 113.934 14.4699C113.419 14.9838 113.162 15.671 113.162 16.5378C113.162 17.4046 113.419 18.1011 113.934 18.6273C114.45 19.1536 115.162 19.4198 116.068 19.4198C116.959 19.4167 117.662 19.1536 118.178 18.6273Z" fill="#5865F2"/>
<path d="M96.6554 22.4719C95.44 21.8652 94.5216 21.0417 93.9094 20.0016C93.2971 18.9615 92.988 17.7913 92.988 16.4911C92.988 15.191 93.3062 14.027 93.9427 13.0023C94.5792 11.9777 95.5127 11.1728 96.7432 10.5877C97.9738 10.0027 99.4438 9.71167 101.156 9.71167C103.278 9.71167 105.039 10.1667 106.439 11.0769V15.0424C105.945 14.6957 105.369 14.414 104.711 14.1973C104.054 13.9806 103.351 13.8722 102.599 13.8722C101.284 13.8722 100.256 14.1168 99.5135 14.609C98.7709 15.1012 98.3981 15.742 98.3981 16.5376C98.3981 17.3177 98.7588 17.9554 99.4801 18.4569C100.201 18.9553 101.247 19.206 102.62 19.206C103.326 19.206 104.023 19.1008 104.711 18.8934C105.396 18.6829 105.987 18.4259 106.481 18.1225V21.9581C104.927 22.9115 103.123 23.3882 101.071 23.3882C99.3437 23.3821 97.8707 23.0787 96.6554 22.4719Z" fill="#5865F2"/>
<path d="M81.6339 22.9272C80.4883 22.6238 79.4547 22.1842 78.5364 21.6053V18.0082C79.2305 18.5561 80.1609 19.0081 81.3278 19.3641C82.4947 19.717 83.6222 19.8934 84.7133 19.8934C85.2225 19.8934 85.6074 19.8253 85.8681 19.6891C86.1287 19.5529 86.2591 19.3888 86.2591 19.2C86.2591 18.9833 86.1894 18.8037 86.0469 18.6583C85.9045 18.5128 85.6287 18.392 85.2195 18.2899L82.6735 17.7048C81.2157 17.3581 80.1821 16.8783 79.5669 16.2622C78.9516 15.6493 78.6455 14.8444 78.6455 13.8476C78.6455 13.0087 78.9122 12.2812 79.4517 11.659C79.9882 11.0368 80.752 10.5569 81.7431 10.2195C82.7342 9.87899 83.892 9.70873 85.2225 9.70873C86.4106 9.70873 87.4987 9.83875 88.4898 10.0988C89.4809 10.3588 90.2992 10.6901 90.9509 11.0956V14.4977C90.2841 14.0922 89.5203 13.7733 88.6474 13.5319C87.7776 13.2935 86.8834 13.1759 85.962 13.1759C84.6315 13.1759 83.9677 13.408 83.9677 13.8693C83.9677 14.086 84.0708 14.247 84.2769 14.3553C84.483 14.4636 84.8618 14.5751 85.4104 14.6927L87.532 15.0828C88.9172 15.3273 89.9507 15.7576 90.6296 16.3706C91.3085 16.9835 91.648 17.8905 91.648 19.0916C91.648 20.4073 91.0873 21.4505 89.9628 22.2244C88.8384 22.9984 87.2441 23.3853 85.1771 23.3853C83.9617 23.3822 82.7796 23.2305 81.6339 22.9272Z" fill="#5865F2"/>
<path d="M73.6263 11.6217C75.0575 11.6217 76.2177 10.5573 76.2177 9.24423C76.2177 7.93119 75.0575 6.86677 73.6263 6.86677C72.1951 6.86677 71.0349 7.93119 71.0349 9.24423C71.0349 10.5573 72.1951 11.6217 73.6263 11.6217Z" fill="#5865F2"/>
<path d="M71.0324 13.2593C72.6206 13.959 74.5907 13.9899 76.2152 13.2593V23.0168H71.0324V13.2593Z" fill="#5865F2"/>
<path d="M51.7825 7.7801H60.0568C62.0511 7.7801 63.7363 8.09895 65.1184 8.73356C66.4974 9.36817 67.531 10.2535 68.2159 11.3865C68.9009 12.5195 69.2464 13.8166 69.2464 15.2778C69.2464 16.7079 68.8888 18.005 68.1735 19.1659C67.4582 20.3299 66.3701 21.2493 64.9062 21.9272C63.4423 22.6052 61.6298 22.9457 59.4627 22.9457H51.7825V7.7801ZM59.3779 19.0916C60.7206 19.0916 61.7541 18.748 62.4754 18.0638C63.1968 17.3766 63.5575 16.4417 63.5575 15.2561C63.5575 14.1571 63.2362 13.2811 62.5936 12.6248C61.9511 11.9685 60.9782 11.6373 59.6779 11.6373H57.0896V19.0916H59.3779Z" fill="#5865F2"/>
<path d="M33.0367 2.51245C30.5122 1.33873 27.8128 0.485679 24.9907 0C24.6441 0.622665 24.2392 1.46015 23.96 2.1264C20.9601 1.67808 17.9877 1.67808 15.0429 2.1264C14.7637 1.46015 14.3496 0.622665 13.9999 0C11.1748 0.485679 8.47235 1.34184 5.94781 2.51868C0.855797 10.165 -0.524568 17.6214 0.165614 24.972C3.54291 27.4782 6.81591 29.0006 10.0337 29.9969C10.8282 28.9103 11.5368 27.7553 12.1472 26.538C10.9846 26.099 9.87112 25.5573 8.81897 24.9284C9.09811 24.7229 9.37112 24.5081 9.63492 24.287C16.0521 27.2696 23.0245 27.2696 29.3649 24.287C29.6318 24.5081 29.9048 24.7229 30.1809 24.9284C29.1257 25.5604 28.0091 26.1021 26.8465 26.5411C27.457 27.7553 28.1625 28.9134 28.96 30C32.1809 29.0037 35.457 27.4813 38.8342 24.972C39.6441 16.4508 37.4508 9.06289 33.0367 2.51245ZM13.0214 20.4514C11.095 20.4514 9.51529 18.6644 9.51529 16.4882C9.51529 14.312 11.0613 12.5218 13.0214 12.5218C14.9815 12.5218 16.5613 14.3088 16.5275 16.4882C16.5306 18.6644 14.9815 20.4514 13.0214 20.4514ZM25.9784 20.4514C24.0521 20.4514 22.4723 18.6644 22.4723 16.4882C22.4723 14.312 24.0183 12.5218 25.9784 12.5218C27.9386 12.5218 29.5183 14.3088 29.4846 16.4882C29.4846 18.6644 27.9386 20.4514 25.9784 20.4514Z" fill="#5865F2"/>
</svg>
