<svg width="601" height="780" viewBox="0 0 601 780" fill="none" xmlns="http://www.w3.org/2000/svg">
<mask id="path-1-inside-1_296_707" fill="white">
<path fill-rule="evenodd" clip-rule="evenodd" d="M234.65 -299.266C246.745 -344.406 293.144 -371.195 338.285 -359.099C383.426 -347.004 410.214 -300.605 398.119 -255.464L389.815 -224.473C383.719 -201.725 386.91 -177.487 398.686 -157.092C410.461 -136.696 429.856 -121.814 452.605 -115.718L483.596 -107.414C528.736 -95.3188 555.525 -48.9198 543.429 -3.7791C531.334 41.3616 484.935 68.15 439.794 56.0546C394.654 43.9592 367.865 -2.43979 379.961 -47.5805L388.265 -78.5714C394.36 -101.32 391.169 -125.558 379.394 -145.953C367.618 -166.349 348.223 -181.231 325.475 -187.327L294.484 -195.631C249.343 -207.726 222.555 -254.125 234.65 -299.266Z"/>
</mask>
<path fill-rule="evenodd" clip-rule="evenodd" d="M234.65 -299.266C246.745 -344.406 293.144 -371.195 338.285 -359.099C383.426 -347.004 410.214 -300.605 398.119 -255.464L389.815 -224.473C383.719 -201.725 386.91 -177.487 398.686 -157.092C410.461 -136.696 429.856 -121.814 452.605 -115.718L483.596 -107.414C528.736 -95.3188 555.525 -48.9198 543.429 -3.7791C531.334 41.3616 484.935 68.15 439.794 56.0546C394.654 43.9592 367.865 -2.43979 379.961 -47.5805L388.265 -78.5714C394.36 -101.32 391.169 -125.558 379.394 -145.953C367.618 -166.349 348.223 -181.231 325.475 -187.327L294.484 -195.631C249.343 -207.726 222.555 -254.125 234.65 -299.266Z" fill="#282D33"/>
<path d="M390.781 -224.215L399.085 -255.205L397.153 -255.723L388.849 -224.732L390.781 -224.215ZM483.854 -108.38L452.864 -116.684L452.346 -114.752L483.337 -106.448L483.854 -108.38ZM387.299 -78.8302L378.995 -47.8393L380.927 -47.3216L389.23 -78.3125L387.299 -78.8302ZM294.225 -194.665L325.216 -186.361L325.734 -188.292L294.743 -196.596L294.225 -194.665ZM294.743 -196.596C250.135 -208.549 223.663 -254.4 235.616 -299.007L233.684 -299.524C221.446 -253.85 248.551 -206.903 294.225 -194.665L294.743 -196.596ZM380.26 -146.453C368.352 -167.078 348.738 -182.128 325.734 -188.292L325.216 -186.361C347.708 -180.334 366.885 -165.619 378.528 -145.453L380.26 -146.453ZM389.23 -78.3125C395.395 -101.317 392.168 -125.828 380.26 -146.453L378.528 -145.453C390.17 -125.287 393.325 -101.322 387.299 -78.8302L389.23 -78.3125ZM440.053 55.0887C395.446 43.1362 368.974 -2.71443 380.927 -47.3216L378.995 -47.8393C366.756 -2.16515 393.861 44.7822 439.536 57.0206L440.053 55.0887ZM542.463 -4.03792C530.511 40.5693 484.66 67.0412 440.053 55.0887L439.536 57.0206C485.21 69.2589 532.157 42.1539 544.395 -3.52028L542.463 -4.03792ZM483.337 -106.448C527.944 -94.4958 554.416 -48.6451 542.463 -4.03792L544.395 -3.52028C556.634 -49.1944 529.529 -96.1417 483.854 -108.38L483.337 -106.448ZM397.82 -156.592C409.728 -135.966 429.341 -120.916 452.346 -114.752L452.864 -116.684C430.371 -122.711 411.195 -137.426 399.552 -157.592L397.82 -156.592ZM388.849 -224.732C382.685 -201.728 385.912 -177.217 397.82 -156.592L399.552 -157.592C387.909 -177.757 384.754 -201.723 390.781 -224.215L388.849 -224.732ZM338.544 -360.065C292.87 -372.304 245.922 -345.199 233.684 -299.524L235.616 -299.007C247.568 -343.614 293.419 -370.086 338.026 -358.133L338.544 -360.065ZM338.026 -358.133C382.633 -346.181 409.105 -300.33 397.153 -255.723L399.085 -255.205C411.323 -300.88 384.218 -347.827 338.544 -360.065L338.026 -358.133Z" fill="#DBB66B" mask="url(#path-1-inside-1_296_707)"/>
<mask id="path-3-inside-2_296_707" fill="white">
<path fill-rule="evenodd" clip-rule="evenodd" d="M128.275 97.7301C116.18 142.871 142.968 189.27 188.109 201.365C233.25 213.461 279.649 186.672 291.744 141.531L300.048 110.54C306.144 87.7921 321.026 68.397 341.422 56.6216C361.817 44.8462 386.055 41.6552 408.803 47.7506L439.794 56.0546C484.935 68.1501 531.334 41.3616 543.429 -3.77909C555.525 -48.9198 528.736 -95.3188 483.596 -107.414C438.455 -119.51 392.056 -92.7212 379.961 -47.5805L371.657 -16.5896C365.561 6.15875 350.679 25.554 330.283 37.3293C309.888 49.1047 285.65 52.2957 262.901 46.2003L231.911 37.8963C186.77 25.8009 140.371 52.5894 128.275 97.7301Z"/>
</mask>
<path fill-rule="evenodd" clip-rule="evenodd" d="M128.275 97.7301C116.18 142.871 142.968 189.27 188.109 201.365C233.25 213.461 279.649 186.672 291.744 141.531L300.048 110.54C306.144 87.7921 321.026 68.397 341.422 56.6216C361.817 44.8462 386.055 41.6552 408.803 47.7506L439.794 56.0546C484.935 68.1501 531.334 41.3616 543.429 -3.77909C555.525 -48.9198 528.736 -95.3188 483.596 -107.414C438.455 -119.51 392.056 -92.7212 379.961 -47.5805L371.657 -16.5896C365.561 6.15875 350.679 25.554 330.283 37.3293C309.888 49.1047 285.65 52.2957 262.901 46.2003L231.911 37.8963C186.77 25.8009 140.371 52.5894 128.275 97.7301Z" fill="#20252A"/>
<path d="M301.014 110.799L292.71 141.79L290.778 141.273L299.082 110.282L301.014 110.799ZM439.536 57.0206L408.545 48.7165L409.062 46.7847L440.053 55.0887L439.536 57.0206ZM370.691 -16.8484L378.995 -47.8393L380.927 -47.3217L372.623 -16.3307L370.691 -16.8484ZM232.169 36.9304L263.16 45.2344L262.643 47.1662L231.652 38.8623L232.169 36.9304ZM231.652 38.8623C187.044 26.9098 141.194 53.3817 129.241 97.9889L127.309 97.4713C139.548 51.7971 186.495 24.6921 232.169 36.9304L231.652 38.8623ZM330.783 38.1954C310.158 50.1033 285.647 53.3303 262.643 47.1662L263.16 45.2344C285.652 51.2611 309.617 48.1061 329.783 36.4633L330.783 38.1954ZM372.623 -16.3307C366.459 6.67374 351.408 26.2874 330.783 38.1954L329.783 36.4633C349.949 24.8205 364.664 5.64374 370.691 -16.8484L372.623 -16.3307ZM483.337 -106.448C438.73 -118.401 392.879 -91.9289 380.927 -47.3217L378.995 -47.8393C391.233 -93.5135 438.18 -120.618 483.855 -108.38L483.337 -106.448ZM542.464 -4.0379C554.416 -48.6451 527.944 -94.4958 483.337 -106.448L483.855 -108.38C529.529 -96.1418 556.634 -49.1944 544.395 -3.52027L542.464 -4.0379ZM440.053 55.0887C484.66 67.0412 530.511 40.5693 542.464 -4.0379L544.395 -3.52027C532.157 42.1538 485.21 69.2589 439.536 57.0206L440.053 55.0887ZM340.922 55.7556C361.547 43.8476 386.058 40.6207 409.062 46.7847L408.545 48.7165C386.052 42.6898 362.087 45.8449 341.922 57.4876L340.922 55.7556ZM299.082 110.282C305.246 87.2771 320.296 67.6635 340.922 55.7556L341.922 57.4876C321.756 69.1304 307.041 88.3071 301.014 110.799L299.082 110.282ZM187.85 202.331C142.176 190.093 115.071 143.145 127.309 97.4713L129.241 97.9889C117.289 142.596 143.761 188.447 188.368 200.399L187.85 202.331ZM188.368 200.399C232.975 212.352 278.826 185.88 290.778 141.273L292.71 141.79C280.472 187.464 233.524 214.569 187.85 202.331L188.368 200.399Z" fill="#DBB66B" mask="url(#path-3-inside-2_296_707)"/>
<mask id="path-5-inside-3_296_707" fill="white">
<path fill-rule="evenodd" clip-rule="evenodd" d="M326.773 150.917C314.678 196.058 341.466 242.457 386.607 254.552C431.748 266.648 478.147 239.859 490.242 194.719L498.546 163.728C504.641 140.979 519.524 121.584 539.919 109.809C560.315 98.0336 584.553 94.8426 607.301 100.938L638.292 109.242C683.433 121.337 729.832 94.5489 741.927 49.4083C754.023 4.26759 727.234 -42.1314 682.093 -54.2268C636.953 -66.3222 590.554 -39.5338 578.458 5.60692L570.154 36.5978C564.059 59.346 549.177 78.7412 528.781 90.5166C508.385 102.292 484.148 105.483 461.399 99.3876L430.408 91.0836C385.268 78.9882 338.869 105.777 326.773 150.917Z"/>
</mask>
<path fill-rule="evenodd" clip-rule="evenodd" d="M326.773 150.917C314.678 196.058 341.466 242.457 386.607 254.552C431.748 266.648 478.147 239.859 490.242 194.719L498.546 163.728C504.641 140.979 519.524 121.584 539.919 109.809C560.315 98.0336 584.553 94.8426 607.301 100.938L638.292 109.242C683.433 121.337 729.832 94.5489 741.927 49.4083C754.023 4.26759 727.234 -42.1314 682.093 -54.2268C636.953 -66.3222 590.554 -39.5338 578.458 5.60692L570.154 36.5978C564.059 59.346 549.177 78.7412 528.781 90.5166C508.385 102.292 484.148 105.483 461.399 99.3876L430.408 91.0836C385.268 78.9882 338.869 105.777 326.773 150.917Z" fill="#282D33"/>
<path d="M499.512 163.986L491.208 194.978L489.276 194.46L497.58 163.469L499.512 163.986ZM638.033 110.208L607.042 101.904L607.56 99.972L638.551 108.276L638.033 110.208ZM569.188 36.339L577.492 5.3481L579.424 5.86574L571.12 36.8566L569.188 36.339ZM430.667 90.1177L461.658 98.4217L461.14 100.354L430.149 92.0495L430.667 90.1177ZM430.149 92.0495C385.542 80.0971 339.692 106.569 327.739 151.176L325.807 150.659C338.046 104.984 384.993 77.8793 430.667 90.1177L430.149 92.0495ZM529.281 91.3826C508.656 103.291 484.145 106.518 461.14 100.354L461.658 98.4217C484.15 104.448 508.115 101.293 528.281 89.6506L529.281 91.3826ZM571.12 36.8566C564.956 59.861 549.906 79.4747 529.281 91.3826L528.281 89.6506C548.447 78.0078 563.162 58.831 569.188 36.339L571.12 36.8566ZM681.835 -53.2609C637.227 -65.2133 591.377 -38.7415 579.424 5.86574L577.492 5.3481C589.731 -40.326 636.678 -67.4311 682.352 -55.1927L681.835 -53.2609ZM740.961 49.1494C752.914 4.54226 726.442 -41.3084 681.835 -53.2609L682.352 -55.1927C728.026 -42.9544 755.131 3.99295 742.893 49.6671L740.961 49.1494ZM638.551 108.276C683.158 120.229 729.009 93.7566 740.961 49.1494L742.893 49.6671C730.655 95.3412 683.707 122.446 638.033 110.208L638.551 108.276ZM539.419 108.943C560.045 97.0349 584.555 93.808 607.56 99.972L607.042 101.904C584.55 95.8771 560.585 99.0322 540.419 110.675L539.419 108.943ZM497.58 163.469C503.744 140.464 518.794 120.851 539.419 108.943L540.419 110.675C520.254 122.318 505.539 141.494 499.512 163.986L497.58 163.469ZM386.348 255.518C340.674 243.28 313.569 196.333 325.807 150.659L327.739 151.176C315.787 195.783 342.259 241.634 386.866 253.586L386.348 255.518ZM386.866 253.586C431.473 265.539 477.324 239.067 489.276 194.46L491.208 194.978C478.97 240.652 432.022 267.757 386.348 255.518L386.866 253.586Z" fill="#DBB66B" mask="url(#path-5-inside-3_296_707)"/>
<mask id="path-7-inside-4_296_707" fill="white">
<path fill-rule="evenodd" clip-rule="evenodd" d="M525.271 204.105C513.176 249.245 539.964 295.644 585.105 307.74C630.245 319.835 676.644 293.047 688.74 247.906L697.044 216.915C703.139 194.167 718.022 174.772 738.417 162.996C758.813 151.221 783.051 148.03 805.799 154.125L836.79 162.429C881.931 174.525 928.33 147.736 940.425 102.596C952.52 57.455 925.732 11.056 880.591 -1.03941C835.451 -13.1348 789.052 13.6537 776.956 58.7943L768.652 89.7852C762.557 112.534 747.674 131.929 727.279 143.704C706.883 155.479 682.645 158.67 659.897 152.575L628.906 144.271C583.765 132.176 537.366 158.964 525.271 204.105Z"/>
</mask>
<path fill-rule="evenodd" clip-rule="evenodd" d="M525.271 204.105C513.176 249.245 539.964 295.644 585.105 307.74C630.245 319.835 676.644 293.047 688.74 247.906L697.044 216.915C703.139 194.167 718.022 174.772 738.417 162.996C758.813 151.221 783.051 148.03 805.799 154.125L836.79 162.429C881.931 174.525 928.33 147.736 940.425 102.596C952.52 57.455 925.732 11.056 880.591 -1.03941C835.451 -13.1348 789.052 13.6537 776.956 58.7943L768.652 89.7852C762.557 112.534 747.674 131.929 727.279 143.704C706.883 155.479 682.645 158.67 659.897 152.575L628.906 144.271C583.765 132.176 537.366 158.964 525.271 204.105Z" fill="#20252A"/>
<path d="M768.652 89.7852L767.686 89.5264L768.652 89.7852ZM698.01 217.174L689.706 248.165L687.774 247.647L696.078 216.656L698.01 217.174ZM836.531 163.395L805.54 155.091L806.058 153.159L837.049 161.463L836.531 163.395ZM767.686 89.5264L775.99 58.5355L777.922 59.0531L769.618 90.0441L767.686 89.5264ZM629.165 143.305L660.156 151.609L659.638 153.541L628.647 145.237L629.165 143.305ZM628.647 145.237C584.04 133.284 538.189 159.756 526.237 204.364L524.305 203.846C536.543 158.172 583.491 131.067 629.165 143.305L628.647 145.237ZM727.779 144.57C707.154 156.478 682.643 159.705 659.638 153.541L660.156 151.609C682.648 157.636 706.613 154.481 726.779 142.838L727.779 144.57ZM769.618 90.0441C763.454 113.049 748.404 132.662 727.779 144.57L726.779 142.838C746.945 131.195 761.66 112.018 767.686 89.5264L769.618 90.0441ZM880.332 -0.0734851C835.725 -12.0259 789.875 14.446 777.922 59.0531L775.99 58.5355C788.229 12.8614 835.176 -14.2437 880.85 -2.00534L880.332 -0.0734851ZM939.459 102.337C951.411 57.7296 924.94 11.879 880.332 -0.0734851L880.85 -2.00534C926.524 10.233 953.629 57.1803 941.391 102.854L939.459 102.337ZM837.049 161.463C881.656 173.416 927.507 146.944 939.459 102.337L941.391 102.854C929.153 148.529 882.205 175.634 836.531 163.395L837.049 161.463ZM737.917 162.13C758.542 150.222 783.053 146.995 806.058 153.159L805.54 155.091C783.048 149.065 759.083 152.22 738.917 163.862L737.917 162.13ZM696.078 216.656C702.242 193.652 717.292 174.038 737.917 162.13L738.917 163.862C718.751 175.505 704.037 194.682 698.01 217.174L696.078 216.656ZM584.846 308.706C539.172 296.467 512.067 249.52 524.305 203.846L526.237 204.364C514.284 248.971 540.756 294.821 585.364 306.774L584.846 308.706ZM585.364 306.774C629.971 318.726 675.821 292.255 687.774 247.647L689.706 248.165C677.467 293.839 630.52 320.944 584.846 308.706L585.364 306.774Z" fill="#DBB66B" mask="url(#path-7-inside-4_296_707)"/>
<mask id="path-9-inside-5_296_707" fill="white">
<path fill-rule="evenodd" clip-rule="evenodd" d="M128.275 97.73C140.371 52.5893 186.77 25.8009 231.91 37.8963C277.051 49.9917 303.84 96.3907 291.744 141.531L283.44 172.522C277.345 195.271 280.536 219.509 292.311 239.904C304.086 260.3 323.482 275.182 346.23 281.277L377.221 289.581C422.362 301.677 449.15 348.076 437.055 393.217C424.959 438.357 378.56 465.146 333.42 453.05C288.279 440.955 261.49 394.556 273.586 349.415L281.89 318.424C287.985 295.676 284.794 271.438 273.019 251.042C261.243 230.647 241.848 215.764 219.1 209.669L188.109 201.365C142.968 189.27 116.18 142.871 128.275 97.73Z"/>
</mask>
<path fill-rule="evenodd" clip-rule="evenodd" d="M128.275 97.73C140.371 52.5893 186.77 25.8009 231.91 37.8963C277.051 49.9917 303.84 96.3907 291.744 141.531L283.44 172.522C277.345 195.271 280.536 219.509 292.311 239.904C304.086 260.3 323.482 275.182 346.23 281.277L377.221 289.581C422.362 301.677 449.15 348.076 437.055 393.217C424.959 438.357 378.56 465.146 333.42 453.05C288.279 440.955 261.49 394.556 273.586 349.415L281.89 318.424C287.985 295.676 284.794 271.438 273.019 251.042C261.243 230.647 241.848 215.764 219.1 209.669L188.109 201.365C142.968 189.27 116.18 142.871 128.275 97.73Z" fill="#20252A"/>
<path d="M283.44 172.522L282.474 172.264L283.44 172.522ZM284.406 172.781L292.71 141.79L290.778 141.273L282.474 172.264L284.406 172.781ZM377.48 288.616L346.489 280.312L345.971 282.243L376.962 290.547L377.48 288.616ZM280.924 318.166L272.62 349.156L274.552 349.674L282.856 318.683L280.924 318.166ZM187.85 202.331L218.841 210.635L219.359 208.703L188.368 200.399L187.85 202.331ZM188.368 200.399C143.761 188.447 117.289 142.596 129.241 97.9888L127.309 97.4712C115.071 143.145 142.176 190.093 187.85 202.331L188.368 200.399ZM273.885 250.542C261.977 229.917 242.363 214.867 219.359 208.703L218.841 210.635C241.333 216.662 260.51 231.377 272.153 251.542L273.885 250.542ZM282.856 318.683C289.02 295.679 285.793 271.168 273.885 250.542L272.153 251.542C283.796 271.708 286.951 295.673 280.924 318.166L282.856 318.683ZM333.678 452.084C289.071 440.132 262.599 394.281 274.552 349.674L272.62 349.156C260.382 394.831 287.487 441.778 333.161 454.016L333.678 452.084ZM436.089 392.958C424.136 437.565 378.286 464.037 333.678 452.084L333.161 454.016C378.835 466.255 425.782 439.15 438.021 393.475L436.089 392.958ZM376.962 290.547C421.569 302.5 448.041 348.351 436.089 392.958L438.021 393.475C450.259 347.801 423.154 300.854 377.48 288.616L376.962 290.547ZM291.445 240.404C303.353 261.029 322.967 276.079 345.971 282.243L346.489 280.312C323.997 274.285 304.82 259.57 293.177 239.404L291.445 240.404ZM282.474 172.264C276.31 195.268 279.537 219.779 291.445 240.404L293.177 239.404C281.534 219.238 278.379 195.273 284.406 172.781L282.474 172.264ZM232.169 36.9303C186.495 24.692 139.548 51.7971 127.309 97.4712L129.241 97.9888C141.194 53.3816 187.044 26.9097 231.652 38.8622L232.169 36.9303ZM231.652 38.8622C276.259 50.8147 302.731 96.6653 290.778 141.273L292.71 141.79C304.948 96.116 277.843 49.1687 232.169 36.9303L231.652 38.8622Z" fill="#DBB66B" mask="url(#path-9-inside-5_296_707)"/>
<mask id="path-11-inside-6_296_707" fill="white">
<path fill-rule="evenodd" clip-rule="evenodd" d="M21.9008 494.726C9.80539 539.866 36.5939 586.265 81.7345 598.361C126.875 610.456 173.274 583.668 185.37 538.527L193.674 507.536C199.769 484.788 214.651 465.393 235.047 453.617C255.442 441.842 279.68 438.651 302.429 444.746L333.42 453.05C378.56 465.146 424.959 438.357 437.055 393.217C449.15 348.076 422.362 301.677 377.221 289.582C332.08 277.486 285.681 304.275 273.586 349.415L265.282 380.406C259.187 403.154 244.304 422.55 223.909 434.325C203.513 446.1 179.275 449.291 156.527 443.196L125.536 434.892C80.3952 422.797 33.9962 449.585 21.9008 494.726Z"/>
</mask>
<path fill-rule="evenodd" clip-rule="evenodd" d="M21.9008 494.726C9.80539 539.866 36.5939 586.265 81.7345 598.361C126.875 610.456 173.274 583.668 185.37 538.527L193.674 507.536C199.769 484.788 214.651 465.393 235.047 453.617C255.442 441.842 279.68 438.651 302.429 444.746L333.42 453.05C378.56 465.146 424.959 438.357 437.055 393.217C449.15 348.076 422.362 301.677 377.221 289.582C332.08 277.486 285.681 304.275 273.586 349.415L265.282 380.406C259.187 403.154 244.304 422.55 223.909 434.325C203.513 446.1 179.275 449.291 156.527 443.196L125.536 434.892C80.3952 422.797 33.9962 449.585 21.9008 494.726Z" fill="#20252A"/>
<path d="M194.64 507.795L186.336 538.786L184.404 538.268L192.708 507.277L194.64 507.795ZM333.161 454.016L302.17 445.712L302.687 443.78L333.679 452.084L333.161 454.016ZM264.316 380.147L272.62 349.156L274.552 349.674L266.248 380.665L264.316 380.147ZM125.795 433.926L156.786 442.23L156.268 444.162L125.277 435.858L125.795 433.926ZM125.277 435.858C80.6699 423.905 34.8192 450.377 22.8667 494.985L20.9349 494.467C33.1732 448.793 80.1206 421.688 125.795 433.926L125.277 435.858ZM224.409 435.191C203.783 447.099 179.272 450.326 156.268 444.162L156.786 442.23C179.278 448.257 203.243 445.102 223.409 433.459L224.409 435.191ZM266.248 380.665C260.084 403.669 245.034 423.283 224.409 435.191L223.409 433.459C243.574 421.816 258.289 402.639 264.316 380.147L266.248 380.665ZM376.962 290.547C332.355 278.595 286.504 305.067 274.552 349.674L272.62 349.156C284.858 303.482 331.806 276.377 377.48 288.616L376.962 290.547ZM436.089 392.958C448.041 348.351 421.569 302.5 376.962 290.547L377.48 288.616C423.154 300.854 450.259 347.801 438.021 393.475L436.089 392.958ZM333.679 452.084C378.286 464.037 424.136 437.565 436.089 392.958L438.021 393.475C425.782 439.15 378.835 466.255 333.161 454.016L333.679 452.084ZM234.547 452.751C255.172 440.843 279.683 437.616 302.687 443.78L302.17 445.712C279.678 439.685 255.713 442.841 235.547 454.483L234.547 452.751ZM192.708 507.277C198.872 484.273 213.922 464.659 234.547 452.751L235.547 454.483C215.381 466.126 200.666 485.303 194.64 507.795L192.708 507.277ZM81.4757 599.327C35.8016 587.088 8.69653 540.141 20.9349 494.467L22.8667 494.985C10.9143 539.592 37.3862 585.442 81.9934 597.395L81.4757 599.327ZM81.9934 597.395C126.601 609.347 172.451 582.875 184.404 538.268L186.336 538.786C174.097 584.46 127.15 611.565 81.4757 599.327L81.9934 597.395Z" fill="#DBB66B" mask="url(#path-11-inside-6_296_707)"/>
<mask id="path-13-inside-7_296_707" fill="white">
<path fill-rule="evenodd" clip-rule="evenodd" d="M220.399 547.913C208.303 593.054 235.092 639.453 280.232 651.548C325.373 663.643 371.772 636.855 383.867 591.714L392.171 560.723C398.267 537.975 413.149 518.58 433.545 506.805C453.94 495.029 478.178 491.838 500.926 497.934L531.917 506.238C577.058 518.333 623.457 491.545 635.553 446.404C647.648 401.263 620.859 354.864 575.719 342.769C530.578 330.673 484.179 357.462 472.084 402.603L463.78 433.593C457.684 456.342 442.802 475.737 422.406 487.512C402.011 499.288 377.773 502.479 355.025 496.383L324.034 488.079C278.893 475.984 232.494 502.772 220.399 547.913Z"/>
</mask>
<path fill-rule="evenodd" clip-rule="evenodd" d="M220.399 547.913C208.303 593.054 235.092 639.453 280.232 651.548C325.373 663.643 371.772 636.855 383.867 591.714L392.171 560.723C398.267 537.975 413.149 518.58 433.545 506.805C453.94 495.029 478.178 491.838 500.926 497.934L531.917 506.238C577.058 518.333 623.457 491.545 635.553 446.404C647.648 401.263 620.859 354.864 575.719 342.769C530.578 330.673 484.179 357.462 472.084 402.603L463.78 433.593C457.684 456.342 442.802 475.737 422.406 487.512C402.011 499.288 377.773 502.479 355.025 496.383L324.034 488.079C278.893 475.984 232.494 502.772 220.399 547.913Z" fill="#282D33"/>
<path d="M393.137 560.982L384.833 591.973L382.901 591.456L391.205 560.464L393.137 560.982ZM531.659 507.204L500.668 498.899L501.185 496.968L532.176 505.272L531.659 507.204ZM462.814 433.335L471.118 402.344L473.05 402.861L464.746 433.852L462.814 433.335ZM324.292 487.113L355.283 495.417L354.766 497.349L323.775 489.045L324.292 487.113ZM323.775 489.045C279.168 477.093 233.317 503.565 221.365 548.172L219.433 547.654C231.671 501.98 278.618 474.875 324.292 487.113L323.775 489.045ZM422.906 488.378C402.281 500.286 377.77 503.513 354.766 497.349L355.283 495.417C377.776 501.444 401.74 498.289 421.906 486.646L422.906 488.378ZM464.746 433.852C458.582 456.857 443.532 476.47 422.906 488.378L421.906 486.646C442.072 475.003 456.787 455.827 462.814 433.335L464.746 433.852ZM575.46 343.735C530.853 331.782 485.002 358.254 473.05 402.861L471.118 402.344C483.356 356.67 530.303 329.565 575.978 341.803L575.46 343.735ZM634.587 446.145C646.539 401.538 620.067 355.687 575.46 343.735L575.978 341.803C621.652 354.041 648.757 400.989 636.518 446.663L634.587 446.145ZM532.176 505.272C576.783 517.224 622.634 490.752 634.587 446.145L636.518 446.663C624.28 492.337 577.333 519.442 531.659 507.204L532.176 505.272ZM433.045 505.939C453.67 494.031 478.181 490.804 501.185 496.968L500.668 498.899C478.176 492.873 454.211 496.028 434.045 507.671L433.045 505.939ZM391.205 560.464C397.37 537.46 412.42 517.846 433.045 505.939L434.045 507.671C413.879 519.313 399.164 538.49 393.137 560.982L391.205 560.464ZM279.974 652.514C234.299 640.276 207.194 593.328 219.433 547.654L221.365 548.172C209.412 592.779 235.884 638.63 280.491 650.582L279.974 652.514ZM280.491 650.582C325.098 662.535 370.949 636.063 382.901 591.456L384.833 591.973C372.595 637.647 325.648 664.752 279.974 652.514L280.491 650.582Z" fill="#DBB66B" mask="url(#path-13-inside-7_296_707)"/>
<mask id="path-15-inside-8_296_707" fill="white">
<path fill-rule="evenodd" clip-rule="evenodd" d="M418.896 601.1C406.801 646.241 433.589 692.64 478.73 704.736C523.871 716.831 570.27 690.042 582.365 644.902L590.669 613.911C596.765 591.163 611.647 571.767 632.043 559.992C652.438 548.217 676.676 545.026 699.424 551.121L730.415 559.425C775.556 571.52 821.955 544.732 834.05 499.591C846.146 454.451 819.357 408.052 774.217 395.956C729.076 383.861 682.677 410.649 670.582 455.79L662.278 486.781C656.182 509.529 641.3 528.924 620.904 540.7C600.509 552.475 576.271 555.666 553.522 549.571L522.531 541.267C477.391 529.171 430.992 555.96 418.896 601.1Z"/>
</mask>
<path fill-rule="evenodd" clip-rule="evenodd" d="M418.896 601.1C406.801 646.241 433.589 692.64 478.73 704.736C523.871 716.831 570.27 690.042 582.365 644.902L590.669 613.911C596.765 591.163 611.647 571.767 632.043 559.992C652.438 548.217 676.676 545.026 699.424 551.121L730.415 559.425C775.556 571.52 821.955 544.732 834.05 499.591C846.146 454.451 819.357 408.052 774.217 395.956C729.076 383.861 682.677 410.649 670.582 455.79L662.278 486.781C656.182 509.529 641.3 528.924 620.904 540.7C600.509 552.475 576.271 555.666 553.522 549.571L522.531 541.267C477.391 529.171 430.992 555.96 418.896 601.1Z" fill="#20252A"/>
<path d="M590.669 613.911L589.703 613.652L590.669 613.911ZM591.635 614.17L583.331 645.161L581.399 644.643L589.703 613.652L591.635 614.17ZM730.156 560.391L699.165 552.087L699.683 550.155L730.674 558.459L730.156 560.391ZM661.312 486.522L669.616 455.531L671.547 456.049L663.244 487.04L661.312 486.522ZM522.79 540.301L553.781 548.605L553.264 550.537L522.273 542.233L522.79 540.301ZM522.273 542.233C477.665 530.28 431.815 556.752 419.862 601.359L417.93 600.842C430.169 555.167 477.116 528.062 522.79 540.301L522.273 542.233ZM621.404 541.566C600.779 553.474 576.268 556.701 553.264 550.537L553.781 548.605C576.273 554.632 600.238 551.476 620.404 539.834L621.404 541.566ZM663.244 487.04C657.079 510.044 642.029 529.658 621.404 541.566L620.404 539.834C640.57 528.191 655.285 509.014 661.312 486.522L663.244 487.04ZM773.958 396.922C729.351 384.97 683.5 411.442 671.547 456.049L669.616 455.531C681.854 409.857 728.801 382.752 774.475 394.99L773.958 396.922ZM833.084 499.333C845.037 454.725 818.565 408.875 773.958 396.922L774.475 394.99C820.15 407.229 847.255 454.176 835.016 499.85L833.084 499.333ZM730.674 558.459C775.281 570.412 821.132 543.94 833.084 499.333L835.016 499.85C822.778 545.524 775.831 572.629 730.156 560.391L730.674 558.459ZM631.543 559.126C652.168 547.218 676.679 543.991 699.683 550.155L699.165 552.087C676.673 546.06 652.708 549.215 632.543 560.858L631.543 559.126ZM589.703 613.652C595.867 590.648 610.917 571.034 631.543 559.126L632.543 560.858C612.377 572.501 597.662 591.678 591.635 614.17L589.703 613.652ZM478.471 705.701C432.797 693.463 405.692 646.516 417.93 600.842L419.862 601.359C407.91 645.966 434.382 691.817 478.989 703.77L478.471 705.701ZM478.989 703.77C523.596 715.722 569.447 689.25 581.399 644.643L583.331 645.161C571.093 690.835 524.145 717.94 478.471 705.701L478.989 703.77Z" fill="#DBB66B" mask="url(#path-15-inside-8_296_707)"/>
<mask id="path-17-inside-9_296_707" fill="white">
<path fill-rule="evenodd" clip-rule="evenodd" d="M433.148 -246.078C445.243 -291.219 491.642 -318.007 536.783 -305.912C581.924 -293.817 608.712 -247.418 596.617 -202.277L588.313 -171.286C582.217 -148.538 585.408 -124.3 597.184 -103.904C608.959 -83.5087 628.354 -68.6262 651.102 -62.5309L682.093 -54.2268C727.234 -42.1314 754.023 4.26758 741.927 49.4082C729.832 94.5489 683.433 121.337 638.292 109.242C593.151 97.1466 566.363 50.7476 578.458 5.60697L586.762 -25.384C592.858 -48.1323 589.667 -72.3703 577.891 -92.7658C566.116 -113.161 546.721 -128.044 523.973 -134.139L492.982 -142.443C447.841 -154.539 421.053 -200.938 433.148 -246.078Z"/>
</mask>
<path fill-rule="evenodd" clip-rule="evenodd" d="M433.148 -246.078C445.243 -291.219 491.642 -318.007 536.783 -305.912C581.924 -293.817 608.712 -247.418 596.617 -202.277L588.313 -171.286C582.217 -148.538 585.408 -124.3 597.184 -103.904C608.959 -83.5087 628.354 -68.6262 651.102 -62.5309L682.093 -54.2268C727.234 -42.1314 754.023 4.26758 741.927 49.4082C729.832 94.5489 683.433 121.337 638.292 109.242C593.151 97.1466 566.363 50.7476 578.458 5.60697L586.762 -25.384C592.858 -48.1323 589.667 -72.3703 577.891 -92.7658C566.116 -113.161 546.721 -128.044 523.973 -134.139L492.982 -142.443C447.841 -154.539 421.053 -200.938 433.148 -246.078Z" fill="#20252A"/>
<path d="M578.458 5.60697L577.492 5.34815L578.458 5.60697ZM589.279 -171.027L597.583 -202.018L595.651 -202.536L587.347 -171.545L589.279 -171.027ZM682.352 -55.1928L651.361 -63.4968L650.844 -61.5649L681.835 -53.2609L682.352 -55.1928ZM585.796 -25.6428L577.492 5.34815L579.424 5.86579L587.728 -25.1252L585.796 -25.6428ZM492.723 -141.477L523.714 -133.173L524.231 -135.105L493.24 -143.409L492.723 -141.477ZM493.24 -143.409C448.633 -155.362 422.161 -201.212 434.114 -245.819L432.182 -246.337C419.944 -200.663 447.049 -153.716 492.723 -141.477L493.24 -143.409ZM578.757 -93.2658C566.849 -113.891 547.236 -128.941 524.231 -135.105L523.714 -133.173C546.206 -127.147 565.383 -112.432 577.025 -92.2658L578.757 -93.2658ZM587.728 -25.1252C593.892 -48.1297 590.665 -72.6406 578.757 -93.2658L577.025 -92.2658C588.668 -72.1 591.823 -48.1349 585.796 -25.6428L587.728 -25.1252ZM638.551 108.276C593.944 96.3236 567.472 50.473 579.424 5.86579L577.492 5.34815C565.254 51.0223 592.359 97.9696 638.033 110.208L638.551 108.276ZM740.961 49.1494C729.009 93.7566 683.158 120.229 638.551 108.276L638.033 110.208C683.707 122.446 730.655 95.3412 742.893 49.6671L740.961 49.1494ZM681.835 -53.2609C726.442 -41.3085 752.914 4.54222 740.961 49.1494L742.893 49.6671C755.131 3.99292 728.026 -42.9544 682.352 -55.1928L681.835 -53.2609ZM596.318 -103.404C608.226 -82.779 627.839 -67.729 650.844 -61.5649L651.361 -63.4968C628.869 -69.5235 609.692 -84.2384 598.05 -104.404L596.318 -103.404ZM587.347 -171.545C581.183 -148.54 584.41 -124.029 596.318 -103.404L598.05 -104.404C586.407 -124.57 583.252 -148.535 589.279 -171.027L587.347 -171.545ZM537.042 -306.878C491.368 -319.116 444.42 -292.011 432.182 -246.337L434.114 -245.819C446.066 -290.427 491.917 -316.899 536.524 -304.946L537.042 -306.878ZM536.524 -304.946C581.131 -292.994 607.603 -247.143 595.651 -202.536L597.583 -202.018C609.821 -247.692 582.716 -294.64 537.042 -306.878L536.524 -304.946Z" fill="#DBB66B" mask="url(#path-17-inside-9_296_707)"/>
<mask id="path-19-inside-10_296_707" fill="white">
<path fill-rule="evenodd" clip-rule="evenodd" d="M326.773 150.917C338.869 105.777 385.268 78.9882 430.408 91.0836C475.549 103.179 502.338 149.578 490.242 194.719L481.938 225.71C475.843 248.458 479.034 272.696 490.809 293.091C502.584 313.487 521.98 328.369 544.728 334.465L575.719 342.769C620.86 354.864 647.648 401.263 635.553 446.404C623.457 491.544 577.058 518.333 531.918 506.238C486.777 494.142 459.988 447.743 472.084 402.602L480.388 371.612C486.483 348.863 483.292 324.625 471.517 304.23C459.741 283.834 440.346 268.952 417.598 262.856L386.607 254.552C341.466 242.457 314.678 196.058 326.773 150.917Z"/>
</mask>
<path fill-rule="evenodd" clip-rule="evenodd" d="M326.773 150.917C338.869 105.777 385.268 78.9882 430.408 91.0836C475.549 103.179 502.338 149.578 490.242 194.719L481.938 225.71C475.843 248.458 479.034 272.696 490.809 293.091C502.584 313.487 521.98 328.369 544.728 334.465L575.719 342.769C620.86 354.864 647.648 401.263 635.553 446.404C623.457 491.544 577.058 518.333 531.918 506.238C486.777 494.142 459.988 447.743 472.084 402.602L480.388 371.612C486.483 348.863 483.292 324.625 471.517 304.23C459.741 283.834 440.346 268.952 417.598 262.856L386.607 254.552C341.466 242.457 314.678 196.058 326.773 150.917Z" fill="#282D33"/>
<path d="M482.904 225.968L491.208 194.977L489.276 194.46L480.972 225.451L482.904 225.968ZM575.978 341.803L544.987 333.499L544.469 335.431L575.46 343.735L575.978 341.803ZM479.422 371.353L471.118 402.344L473.05 402.861L481.354 371.87L479.422 371.353ZM386.348 255.518L417.339 263.822L417.857 261.89L386.866 253.586L386.348 255.518ZM386.866 253.586C342.259 241.634 315.787 195.783 327.739 151.176L325.807 150.658C313.569 196.333 340.674 243.28 386.348 255.518L386.866 253.586ZM472.383 303.73C460.475 283.105 440.861 268.054 417.857 261.89L417.339 263.822C439.831 269.849 459.008 284.564 470.651 304.73L472.383 303.73ZM481.354 371.87C487.518 348.866 484.291 324.355 472.383 303.73L470.651 304.73C482.294 324.896 485.449 348.861 479.422 371.353L481.354 371.87ZM532.176 505.272C487.569 493.319 461.097 447.469 473.05 402.861L471.118 402.344C458.88 448.018 485.985 494.965 531.659 507.203L532.176 505.272ZM634.587 446.145C622.634 490.752 576.784 517.224 532.176 505.272L531.659 507.203C577.333 519.442 624.28 492.337 636.519 446.663L634.587 446.145ZM575.46 343.735C620.067 355.687 646.539 401.538 634.587 446.145L636.519 446.663C648.757 400.989 621.652 354.041 575.978 341.803L575.46 343.735ZM489.943 293.591C501.851 314.217 521.465 329.267 544.469 335.431L544.987 333.499C522.495 327.472 503.318 312.757 491.675 292.591L489.943 293.591ZM480.972 225.451C474.808 248.455 478.035 272.966 489.943 293.591L491.675 292.591C480.032 272.426 476.877 248.461 482.904 225.968L480.972 225.451ZM430.667 90.1176C384.993 77.8793 338.046 104.984 325.807 150.658L327.739 151.176C339.692 106.569 385.542 80.097 430.15 92.0495L430.667 90.1176ZM430.15 92.0495C474.757 104.002 501.229 149.853 489.276 194.46L491.208 194.977C503.446 149.303 476.341 102.356 430.667 90.1176L430.15 92.0495Z" fill="#DBB66B" mask="url(#path-19-inside-10_296_707)"/>
<mask id="path-21-inside-11_296_707" fill="white">
<path fill-rule="evenodd" clip-rule="evenodd" d="M631.646 -192.891C643.741 -238.032 690.14 -264.82 735.281 -252.725C780.421 -240.629 807.21 -194.23 795.115 -149.09L786.81 -118.098C780.715 -95.3502 783.906 -71.1123 795.681 -50.7168C807.457 -30.3213 826.852 -15.4389 849.6 -9.34349L880.591 -1.03947C925.732 11.0559 952.52 57.455 940.425 102.596C928.33 147.736 881.931 174.525 836.79 162.429C791.649 150.334 764.861 103.935 776.956 58.7943L785.26 27.8034C791.356 5.05508 788.165 -19.1829 776.389 -39.5785C764.614 -59.974 745.219 -74.8565 722.47 -80.9519L691.479 -89.2558C646.339 -101.351 619.55 -147.75 631.646 -192.891Z"/>
</mask>
<path fill-rule="evenodd" clip-rule="evenodd" d="M631.646 -192.891C643.741 -238.032 690.14 -264.82 735.281 -252.725C780.421 -240.629 807.21 -194.23 795.115 -149.09L786.81 -118.098C780.715 -95.3502 783.906 -71.1123 795.681 -50.7168C807.457 -30.3213 826.852 -15.4389 849.6 -9.34349L880.591 -1.03947C925.732 11.0559 952.52 57.455 940.425 102.596C928.33 147.736 881.931 174.525 836.79 162.429C791.649 150.334 764.861 103.935 776.956 58.7943L785.26 27.8034C791.356 5.05508 788.165 -19.1829 776.389 -39.5785C764.614 -59.974 745.219 -74.8565 722.47 -80.9519L691.479 -89.2558C646.339 -101.351 619.55 -147.75 631.646 -192.891Z" fill="#20252A"/>
<path d="M787.776 -117.84L796.08 -148.831L794.149 -149.348L785.845 -118.357L787.776 -117.84ZM880.85 -2.00539L849.859 -10.3094L849.341 -8.37757L880.332 -0.0735412L880.85 -2.00539ZM784.294 27.5446L775.99 58.5355L777.922 59.0531L786.226 28.0622L784.294 27.5446ZM691.221 -88.2899L722.211 -79.9859L722.729 -81.9178L691.738 -90.2218L691.221 -88.2899ZM691.738 -90.2218C647.131 -102.174 620.659 -148.025 632.612 -192.632L630.68 -193.15C618.441 -147.476 645.547 -100.528 691.221 -88.2899L691.738 -90.2218ZM777.255 -40.0784C765.347 -60.7037 745.734 -75.7537 722.729 -81.9178L722.211 -79.9859C744.704 -73.9592 763.88 -59.2443 775.523 -39.0785L777.255 -40.0784ZM786.226 28.0622C792.39 5.05773 789.163 -19.4532 777.255 -40.0784L775.523 -39.0785C787.166 -18.9126 790.321 5.05245 784.294 27.5446L786.226 28.0622ZM837.049 161.463C792.442 149.511 765.97 103.66 777.922 59.0531L775.99 58.5355C763.752 104.21 790.857 151.157 836.531 163.395L837.049 161.463ZM939.459 102.337C927.507 146.944 881.656 173.416 837.049 161.463L836.531 163.395C882.205 175.634 929.153 148.529 941.391 102.854L939.459 102.337ZM880.332 -0.0735412C924.94 11.8789 951.412 57.7296 939.459 102.337L941.391 102.854C953.629 57.1803 926.524 10.233 880.85 -2.00539L880.332 -0.0735412ZM794.815 -50.2168C806.723 -29.5916 826.337 -14.5416 849.341 -8.37757L849.859 -10.3094C827.367 -16.3362 808.19 -31.051 796.547 -51.2168L794.815 -50.2168ZM785.845 -118.357C779.681 -95.3529 782.907 -70.842 794.815 -50.2168L796.547 -51.2168C784.905 -71.3827 781.75 -95.3476 787.776 -117.84L785.845 -118.357ZM735.54 -253.691C689.865 -265.929 642.918 -238.824 630.68 -193.15L632.612 -192.632C644.564 -237.239 690.415 -263.711 735.022 -251.759L735.54 -253.691ZM735.022 -251.759C779.629 -239.806 806.101 -193.956 794.149 -149.348L796.08 -148.831C808.319 -194.505 781.214 -241.452 735.54 -253.691L735.022 -251.759Z" fill="#DBB66B" mask="url(#path-21-inside-11_296_707)"/>
<mask id="path-23-inside-12_296_707" fill="white">
<path fill-rule="evenodd" clip-rule="evenodd" d="M525.271 204.105C537.366 158.964 583.765 132.176 628.906 144.271C674.047 156.366 700.835 202.765 688.74 247.906L680.436 278.897C674.34 301.645 677.531 325.883 689.307 346.279C701.082 366.674 720.477 381.557 743.226 387.652L774.217 395.956C819.357 408.052 846.146 454.451 834.05 499.591C821.955 544.732 775.556 571.52 730.415 559.425C685.275 547.33 658.486 500.931 670.582 455.79L678.886 424.799C684.981 402.051 681.79 377.813 670.015 357.417C658.239 337.022 638.844 322.139 616.096 316.044L585.105 307.74C539.964 295.644 513.176 249.245 525.271 204.105Z"/>
</mask>
<path fill-rule="evenodd" clip-rule="evenodd" d="M525.271 204.105C537.366 158.964 583.765 132.176 628.906 144.271C674.047 156.366 700.835 202.765 688.74 247.906L680.436 278.897C674.34 301.645 677.531 325.883 689.307 346.279C701.082 366.674 720.477 381.557 743.226 387.652L774.217 395.956C819.357 408.052 846.146 454.451 834.05 499.591C821.955 544.732 775.556 571.52 730.415 559.425C685.275 547.33 658.486 500.931 670.582 455.79L678.886 424.799C684.981 402.051 681.79 377.813 670.015 357.417C658.239 337.022 638.844 322.139 616.096 316.044L585.105 307.74C539.964 295.644 513.176 249.245 525.271 204.105Z" fill="#20252A"/>
<path d="M678.886 424.799L677.92 424.54L678.886 424.799ZM688.74 247.906L687.774 247.647L688.74 247.906ZM681.402 279.156L689.706 248.165L687.774 247.647L679.47 278.638L681.402 279.156ZM774.475 394.99L743.484 386.686L742.967 388.618L773.958 396.922L774.475 394.99ZM677.92 424.54L669.616 455.531L671.547 456.049L679.851 425.058L677.92 424.54ZM584.846 308.706L615.837 317.01L616.354 315.078L585.364 306.774L584.846 308.706ZM585.364 306.774C540.756 294.821 514.285 248.971 526.237 204.364L524.305 203.846C512.067 249.52 539.172 296.467 584.846 308.706L585.364 306.774ZM670.881 356.917C658.973 336.292 639.359 321.242 616.354 315.078L615.837 317.01C638.329 323.036 657.506 337.751 669.149 357.917L670.881 356.917ZM679.851 425.058C686.015 402.053 682.789 377.543 670.881 356.917L669.149 357.917C680.791 378.083 683.946 402.048 677.92 424.54L679.851 425.058ZM730.674 558.459C686.067 546.507 659.595 500.656 671.547 456.049L669.616 455.531C657.377 501.205 684.482 548.153 730.156 560.391L730.674 558.459ZM833.084 499.332C821.132 543.94 775.281 570.412 730.674 558.459L730.156 560.391C775.831 572.629 822.778 545.524 835.016 499.85L833.084 499.332ZM773.958 396.922C818.565 408.875 845.037 454.725 833.084 499.332L835.016 499.85C847.255 454.176 820.15 407.229 774.475 394.99L773.958 396.922ZM688.441 346.779C700.349 367.404 719.962 382.454 742.967 388.618L743.484 386.686C720.992 380.66 701.816 365.945 690.173 345.779L688.441 346.779ZM679.47 278.638C673.306 301.643 676.533 326.154 688.441 346.779L690.173 345.779C678.53 325.613 675.375 301.648 681.402 279.156L679.47 278.638ZM629.165 143.305C583.491 131.067 536.544 158.172 524.305 203.846L526.237 204.364C538.189 159.756 584.04 133.284 628.647 145.237L629.165 143.305ZM628.647 145.237C673.255 157.189 699.726 203.04 687.774 247.647L689.706 248.165C701.944 202.491 674.839 155.543 629.165 143.305L628.647 145.237Z" fill="#DBB66B" mask="url(#path-23-inside-12_296_707)"/>
<path d="M191.832 -139.467C198.201 -163.235 222.631 -177.339 246.399 -170.971L323.797 -150.232C347.565 -143.864 361.669 -119.433 355.301 -95.6654L334.562 -18.2675C328.194 5.50031 303.763 19.6052 279.995 13.2366L202.598 -7.50207C178.83 -13.8706 164.725 -38.301 171.093 -62.0688L191.832 -139.467Z" fill="#282D33"/>
<rect x="96.9887" y="214.494" width="169.235" height="169.235" rx="44.5536" transform="rotate(15 96.9887 214.494)" fill="#282D33"/>
<rect x="150.176" y="15.9956" width="169.235" height="169.235" rx="44.5536" transform="rotate(15 150.176 15.9956)" fill="#20252A"/>
<rect x="43.8014" y="412.991" width="169.235" height="169.235" rx="44.5536" transform="rotate(15 43.8014 412.991)" fill="#20252B"/>
<rect x="401.861" y="-129.315" width="169.235" height="169.235" rx="44.5536" transform="rotate(15 401.861 -129.315)" fill="#20252A"/>
<rect x="295.487" y="267.681" width="169.235" height="169.235" rx="44.5536" transform="rotate(15 295.487 267.681)" fill="#20252A"/>
<rect x="348.674" y="69.1829" width="169.235" height="169.235" rx="44.5536" transform="rotate(15 348.674 69.1829)" fill="#282D33"/>
<rect x="242.299" y="466.179" width="169.235" height="169.235" rx="44.5536" transform="rotate(15 242.299 466.179)" fill="#282D33"/>
<rect x="600.359" y="-76.1274" width="169.235" height="169.235" rx="44.5536" transform="rotate(15 600.359 -76.1274)" fill="#282D33"/>
<rect x="493.984" y="320.868" width="169.235" height="169.235" rx="44.5536" transform="rotate(15 493.984 320.868)" fill="#282D33"/>
<rect x="547.172" y="122.37" width="169.235" height="169.235" rx="44.5536" transform="rotate(15 547.172 122.37)" fill="#20252A"/>
<rect x="440.797" y="519.366" width="169.235" height="169.235" rx="44.5536" transform="rotate(15 440.797 519.366)" fill="#20252A"/>
<rect x="639.295" y="572.553" width="169.235" height="169.235" rx="44.5536" transform="rotate(15 639.295 572.553)" fill="#20252A"/>
</svg>
