<svg width="1016" height="1161" viewBox="0 0 1016 1161" fill="none" xmlns="http://www.w3.org/2000/svg">
<mask id="path-1-inside-1_296_554" fill="white">
<path fill-rule="evenodd" clip-rule="evenodd" d="M234.65 81.7344C246.745 36.5937 293.144 9.80526 338.285 21.9007V21.9007C383.426 33.9961 410.214 80.3951 398.119 125.536L389.815 156.527C383.719 179.275 386.91 203.513 398.686 223.908V223.908C410.461 244.304 429.856 259.186 452.605 265.282L483.596 273.586C528.736 285.681 555.525 332.08 543.429 377.221V377.221C531.334 422.362 484.935 449.15 439.794 437.055V437.055C394.654 424.959 367.865 378.56 379.961 333.42L388.265 302.429C394.36 279.68 391.169 255.442 379.394 235.047V235.047C367.618 214.651 348.223 199.769 325.475 193.673L294.484 185.369C249.343 173.274 222.555 126.875 234.65 81.7344V81.7344Z"/>
</mask>
<path fill-rule="evenodd" clip-rule="evenodd" d="M234.65 81.7344C246.745 36.5937 293.144 9.80526 338.285 21.9007V21.9007C383.426 33.9961 410.214 80.3951 398.119 125.536L389.815 156.527C383.719 179.275 386.91 203.513 398.686 223.908V223.908C410.461 244.304 429.856 259.186 452.605 265.282L483.596 273.586C528.736 285.681 555.525 332.08 543.429 377.221V377.221C531.334 422.362 484.935 449.15 439.794 437.055V437.055C394.654 424.959 367.865 378.56 379.961 333.42L388.265 302.429C394.36 279.68 391.169 255.442 379.394 235.047V235.047C367.618 214.651 348.223 199.769 325.475 193.673L294.484 185.369C249.343 173.274 222.555 126.875 234.65 81.7344V81.7344Z" fill="#282D33"/>
<path d="M390.781 156.785L399.085 125.795L397.153 125.277L388.849 156.268L390.781 156.785ZM483.854 272.62L452.864 264.316L452.346 266.248L483.337 274.552L483.854 272.62ZM387.299 302.17L378.995 333.161L380.927 333.678L389.23 302.687L387.299 302.17ZM294.225 186.335L325.216 194.639L325.734 192.708L294.743 184.404L294.225 186.335ZM294.743 184.404C250.135 172.451 223.663 126.6 235.616 81.9932L233.684 81.4756C221.446 127.15 248.551 174.097 294.225 186.335L294.743 184.404ZM380.26 234.547C368.352 213.922 348.738 198.872 325.734 192.708L325.216 194.639C347.708 200.666 366.885 215.381 378.528 235.547L380.26 234.547ZM389.23 302.687C395.395 279.683 392.168 255.172 380.26 234.547L378.528 235.547C390.17 255.713 393.325 279.678 387.299 302.17L389.23 302.687ZM440.053 436.089C395.446 424.136 368.974 378.286 380.927 333.678L378.995 333.161C366.756 378.835 393.861 425.782 439.536 438.021L440.053 436.089ZM542.463 376.962C530.511 421.569 484.66 448.041 440.053 436.089L439.536 438.021C485.21 450.259 532.157 423.154 544.395 377.48L542.463 376.962ZM483.337 274.552C527.944 286.504 554.416 332.355 542.463 376.962L544.395 377.48C556.634 331.806 529.529 284.858 483.854 272.62L483.337 274.552ZM397.82 224.408C409.728 245.034 429.341 260.084 452.346 266.248L452.864 264.316C430.371 258.289 411.195 243.574 399.552 223.408L397.82 224.408ZM388.849 156.268C382.685 179.272 385.912 203.783 397.82 224.408L399.552 223.408C387.909 203.243 384.754 179.277 390.781 156.785L388.849 156.268ZM338.544 20.9347C292.87 8.6964 245.922 35.8015 233.684 81.4756L235.616 81.9932C247.568 37.386 293.419 10.9141 338.026 22.8666L338.544 20.9347ZM338.026 22.8666C382.633 34.8191 409.105 80.6697 397.153 125.277L399.085 125.795C411.323 80.1204 384.218 33.1731 338.544 20.9347L338.026 22.8666Z" fill="#DBB66B" mask="url(#path-1-inside-1_296_554)"/>
<mask id="path-3-inside-2_296_554" fill="white">
<path fill-rule="evenodd" clip-rule="evenodd" d="M128.275 478.73C116.18 523.871 142.968 570.27 188.109 582.365V582.365C233.25 594.461 279.649 567.672 291.744 522.531L300.048 491.54C306.144 468.792 321.026 449.397 341.422 437.622V437.622C361.817 425.846 386.055 422.655 408.803 428.751L439.794 437.055C484.935 449.15 531.334 422.362 543.429 377.221V377.221C555.525 332.08 528.736 285.681 483.596 273.586V273.586C438.455 261.49 392.056 288.279 379.961 333.419L371.657 364.41C365.561 387.159 350.679 406.554 330.283 418.329V418.329C309.888 430.105 285.65 433.296 262.901 427.2L231.911 418.896C186.77 406.801 140.371 433.589 128.275 478.73V478.73Z"/>
</mask>
<path fill-rule="evenodd" clip-rule="evenodd" d="M128.275 478.73C116.18 523.871 142.968 570.27 188.109 582.365V582.365C233.25 594.461 279.649 567.672 291.744 522.531L300.048 491.54C306.144 468.792 321.026 449.397 341.422 437.622V437.622C361.817 425.846 386.055 422.655 408.803 428.751L439.794 437.055C484.935 449.15 531.334 422.362 543.429 377.221V377.221C555.525 332.08 528.736 285.681 483.596 273.586V273.586C438.455 261.49 392.056 288.279 379.961 333.419L371.657 364.41C365.561 387.159 350.679 406.554 330.283 418.329V418.329C309.888 430.105 285.65 433.296 262.901 427.2L231.911 418.896C186.77 406.801 140.371 433.589 128.275 478.73V478.73Z" fill="#20252A"/>
<path d="M301.014 491.799L292.71 522.79L290.778 522.273L299.082 491.282L301.014 491.799ZM439.536 438.021L408.545 429.717L409.062 427.785L440.053 436.089L439.536 438.021ZM370.691 364.152L378.995 333.161L380.927 333.678L372.623 364.669L370.691 364.152ZM232.169 417.93L263.16 426.234L262.643 428.166L231.652 419.862L232.169 417.93ZM231.652 419.862C187.044 407.91 141.194 434.382 129.241 478.989L127.309 478.471C139.548 432.797 186.495 405.692 232.169 417.93L231.652 419.862ZM330.783 419.195C310.158 431.103 285.647 434.33 262.643 428.166L263.16 426.234C285.652 432.261 309.617 429.106 329.783 417.463L330.783 419.195ZM372.623 364.669C366.459 387.674 351.408 407.287 330.783 419.195L329.783 417.463C349.949 405.821 364.664 386.644 370.691 364.152L372.623 364.669ZM483.337 274.552C438.73 262.599 392.879 289.071 380.927 333.678L378.995 333.161C391.233 287.487 438.18 260.382 483.855 272.62L483.337 274.552ZM542.464 376.962C554.416 332.355 527.944 286.504 483.337 274.552L483.855 272.62C529.529 284.858 556.634 331.806 544.395 377.48L542.464 376.962ZM440.053 436.089C484.66 448.041 530.511 421.569 542.464 376.962L544.395 377.48C532.157 423.154 485.21 450.259 439.536 438.021L440.053 436.089ZM340.922 436.756C361.547 424.848 386.058 421.621 409.062 427.785L408.545 429.717C386.052 423.69 362.087 426.845 341.922 438.488L340.922 436.756ZM299.082 491.282C305.246 468.277 320.296 448.664 340.922 436.756L341.922 438.488C321.756 450.13 307.041 469.307 301.014 491.799L299.082 491.282ZM187.85 583.331C142.176 571.093 115.071 524.145 127.309 478.471L129.241 478.989C117.289 523.596 143.761 569.447 188.368 581.399L187.85 583.331ZM188.368 581.399C232.975 593.352 278.826 566.88 290.778 522.273L292.71 522.79C280.472 568.464 233.524 595.569 187.85 583.331L188.368 581.399Z" fill="#DBB66B" mask="url(#path-3-inside-2_296_554)"/>
<mask id="path-5-inside-3_296_554" fill="white">
<path fill-rule="evenodd" clip-rule="evenodd" d="M326.773 531.917C314.678 577.058 341.466 623.457 386.607 635.552V635.552C431.748 647.648 478.147 620.859 490.242 575.719L498.546 544.728C504.641 521.979 519.524 502.584 539.919 490.809V490.809C560.315 479.034 584.553 475.843 607.301 481.938L638.292 490.242C683.433 502.337 729.832 475.549 741.927 430.408V430.408C754.023 385.268 727.234 338.869 682.093 326.773V326.773C636.953 314.678 590.554 341.466 578.458 386.607L570.154 417.598C564.059 440.346 549.177 459.741 528.781 471.517V471.517C508.385 483.292 484.148 486.483 461.399 480.388L430.408 472.084C385.268 459.988 338.869 486.777 326.773 531.917V531.917Z"/>
</mask>
<path fill-rule="evenodd" clip-rule="evenodd" d="M326.773 531.917C314.678 577.058 341.466 623.457 386.607 635.552V635.552C431.748 647.648 478.147 620.859 490.242 575.719L498.546 544.728C504.641 521.979 519.524 502.584 539.919 490.809V490.809C560.315 479.034 584.553 475.843 607.301 481.938L638.292 490.242C683.433 502.337 729.832 475.549 741.927 430.408V430.408C754.023 385.268 727.234 338.869 682.093 326.773V326.773C636.953 314.678 590.554 341.466 578.458 386.607L570.154 417.598C564.059 440.346 549.177 459.741 528.781 471.517V471.517C508.385 483.292 484.148 486.483 461.399 480.388L430.408 472.084C385.268 459.988 338.869 486.777 326.773 531.917V531.917Z" fill="#282D33"/>
<path d="M499.512 544.986L491.208 575.978L489.276 575.46L497.58 544.469L499.512 544.986ZM638.033 491.208L607.042 482.904L607.56 480.972L638.551 489.276L638.033 491.208ZM569.188 417.339L577.492 386.348L579.424 386.866L571.12 417.857L569.188 417.339ZM430.667 471.118L461.658 479.422L461.14 481.354L430.149 473.05L430.667 471.118ZM430.149 473.05C385.542 461.097 339.692 487.569 327.739 532.176L325.807 531.659C338.046 485.984 384.993 458.879 430.667 471.118L430.149 473.05ZM529.281 472.383C508.656 484.291 484.145 487.518 461.14 481.354L461.658 479.422C484.15 485.448 508.115 482.293 528.281 470.651L529.281 472.383ZM571.12 417.857C564.956 440.861 549.906 460.475 529.281 472.383L528.281 470.651C548.447 459.008 563.162 439.831 569.188 417.339L571.12 417.857ZM681.835 327.739C637.227 315.787 591.377 342.259 579.424 386.866L577.492 386.348C589.731 340.674 636.678 313.569 682.352 325.807L681.835 327.739ZM740.961 430.149C752.914 385.542 726.442 339.692 681.835 327.739L682.352 325.807C728.026 338.046 755.131 384.993 742.893 430.667L740.961 430.149ZM638.551 489.276C683.158 501.229 729.009 474.757 740.961 430.149L742.893 430.667C730.655 476.341 683.707 503.446 638.033 491.208L638.551 489.276ZM539.419 489.943C560.045 478.035 584.555 474.808 607.56 480.972L607.042 482.904C584.55 476.877 560.585 480.032 540.419 491.675L539.419 489.943ZM497.58 544.469C503.744 521.464 518.794 501.851 539.419 489.943L540.419 491.675C520.254 503.318 505.539 522.494 499.512 544.986L497.58 544.469ZM386.348 636.518C340.674 624.28 313.569 577.333 325.807 531.659L327.739 532.176C315.787 576.783 342.259 622.634 386.866 634.586L386.348 636.518ZM386.866 634.586C431.473 646.539 477.324 620.067 489.276 575.46L491.208 575.978C478.97 621.652 432.022 648.757 386.348 636.518L386.866 634.586Z" fill="#DBB66B" mask="url(#path-5-inside-3_296_554)"/>
<mask id="path-7-inside-4_296_554" fill="white">
<path fill-rule="evenodd" clip-rule="evenodd" d="M525.271 585.105C513.176 630.245 539.964 676.644 585.105 688.74V688.74C630.245 700.835 676.644 674.047 688.74 628.906L697.044 597.915C703.139 575.167 718.022 555.772 738.417 543.996V543.996C758.813 532.221 783.051 529.03 805.799 535.125L836.79 543.429C881.931 555.525 928.33 528.736 940.425 483.596V483.596C952.52 438.455 925.732 392.056 880.591 379.961V379.961C835.451 367.865 789.052 394.654 776.956 439.794L768.652 470.785C762.557 493.534 747.674 512.929 727.279 524.704V524.704C706.883 536.479 682.645 539.67 659.897 533.575L628.906 525.271C583.765 513.176 537.366 539.964 525.271 585.105V585.105Z"/>
</mask>
<path fill-rule="evenodd" clip-rule="evenodd" d="M525.271 585.105C513.176 630.245 539.964 676.644 585.105 688.74V688.74C630.245 700.835 676.644 674.047 688.74 628.906L697.044 597.915C703.139 575.167 718.022 555.772 738.417 543.996V543.996C758.813 532.221 783.051 529.03 805.799 535.125L836.79 543.429C881.931 555.525 928.33 528.736 940.425 483.596V483.596C952.52 438.455 925.732 392.056 880.591 379.961V379.961C835.451 367.865 789.052 394.654 776.956 439.794L768.652 470.785C762.557 493.534 747.674 512.929 727.279 524.704V524.704C706.883 536.479 682.645 539.67 659.897 533.575L628.906 525.271C583.765 513.176 537.366 539.964 525.271 585.105V585.105Z" fill="#20252A"/>
<path d="M768.652 470.785L767.686 470.526L768.652 470.785ZM698.01 598.174L689.706 629.165L687.774 628.647L696.078 597.656L698.01 598.174ZM836.531 544.395L805.54 536.091L806.058 534.159L837.049 542.463L836.531 544.395ZM767.686 470.526L775.99 439.536L777.922 440.053L769.618 471.044L767.686 470.526ZM629.165 524.305L660.156 532.609L659.638 534.541L628.647 526.237L629.165 524.305ZM628.647 526.237C584.04 514.284 538.189 540.756 526.237 585.364L524.305 584.846C536.543 539.172 583.491 512.067 629.165 524.305L628.647 526.237ZM727.779 525.57C707.154 537.478 682.643 540.705 659.638 534.541L660.156 532.609C682.648 538.636 706.613 535.481 726.779 523.838L727.779 525.57ZM769.618 471.044C763.454 494.049 748.404 513.662 727.779 525.57L726.779 523.838C746.945 512.195 761.66 493.019 767.686 470.526L769.618 471.044ZM880.332 380.927C835.725 368.974 789.875 395.446 777.922 440.053L775.99 439.536C788.229 393.861 835.176 366.756 880.85 378.995L880.332 380.927ZM939.459 483.337C951.411 438.73 924.94 392.879 880.332 380.927L880.85 378.995C926.524 391.233 953.629 438.18 941.391 483.854L939.459 483.337ZM837.049 542.463C881.656 554.416 927.507 527.944 939.459 483.337L941.391 483.854C929.153 529.529 882.205 556.634 836.531 544.395L837.049 542.463ZM737.917 543.13C758.542 531.222 783.053 527.995 806.058 534.159L805.54 536.091C783.048 530.065 759.083 533.22 738.917 544.862L737.917 543.13ZM696.078 597.656C702.242 574.652 717.292 555.038 737.917 543.13L738.917 544.862C718.751 556.505 704.037 575.682 698.01 598.174L696.078 597.656ZM584.846 689.706C539.172 677.467 512.067 630.52 524.305 584.846L526.237 585.364C514.284 629.971 540.756 675.821 585.364 687.774L584.846 689.706ZM585.364 687.774C629.971 699.726 675.821 673.255 687.774 628.647L689.706 629.165C677.467 674.839 630.52 701.944 584.846 689.706L585.364 687.774Z" fill="#DBB66B" mask="url(#path-7-inside-4_296_554)"/>
<mask id="path-9-inside-5_296_554" fill="white">
<path fill-rule="evenodd" clip-rule="evenodd" d="M128.275 478.73C140.371 433.589 186.77 406.801 231.91 418.896V418.896C277.051 430.992 303.84 477.391 291.744 522.531L283.44 553.522C277.345 576.271 280.536 600.509 292.311 620.904V620.904C304.086 641.3 323.482 656.182 346.23 662.277L377.221 670.581C422.362 682.677 449.15 729.076 437.055 774.217V774.217C424.959 819.357 378.56 846.146 333.42 834.05V834.05C288.279 821.955 261.49 775.556 273.586 730.415L281.89 699.424C287.985 676.676 284.794 652.438 273.019 632.042V632.042C261.243 611.647 241.848 596.764 219.1 590.669L188.109 582.365C142.968 570.27 116.18 523.871 128.275 478.73V478.73Z"/>
</mask>
<path fill-rule="evenodd" clip-rule="evenodd" d="M128.275 478.73C140.371 433.589 186.77 406.801 231.91 418.896V418.896C277.051 430.992 303.84 477.391 291.744 522.531L283.44 553.522C277.345 576.271 280.536 600.509 292.311 620.904V620.904C304.086 641.3 323.482 656.182 346.23 662.277L377.221 670.581C422.362 682.677 449.15 729.076 437.055 774.217V774.217C424.959 819.357 378.56 846.146 333.42 834.05V834.05C288.279 821.955 261.49 775.556 273.586 730.415L281.89 699.424C287.985 676.676 284.794 652.438 273.019 632.042V632.042C261.243 611.647 241.848 596.764 219.1 590.669L188.109 582.365C142.968 570.27 116.18 523.871 128.275 478.73V478.73Z" fill="#20252A"/>
<path d="M284.406 553.781L292.71 522.79L290.778 522.273L282.474 553.264L284.406 553.781ZM377.48 669.616L346.489 661.312L345.971 663.243L376.962 671.547L377.48 669.616ZM280.924 699.166L272.62 730.156L274.552 730.674L282.856 699.683L280.924 699.166ZM187.85 583.331L218.841 591.635L219.359 589.703L188.368 581.399L187.85 583.331ZM188.368 581.399C143.761 569.447 117.289 523.596 129.241 478.989L127.309 478.471C115.071 524.145 142.176 571.093 187.85 583.331L188.368 581.399ZM273.885 631.542C261.977 610.917 242.363 595.867 219.359 589.703L218.841 591.635C241.333 597.662 260.51 612.377 272.153 632.542L273.885 631.542ZM282.856 699.683C289.02 676.679 285.793 652.168 273.885 631.542L272.153 632.542C283.796 652.708 286.951 676.673 280.924 699.166L282.856 699.683ZM333.678 833.084C289.071 821.132 262.599 775.281 274.552 730.674L272.62 730.156C260.382 775.831 287.487 822.778 333.161 835.016L333.678 833.084ZM436.089 773.958C424.136 818.565 378.286 845.037 333.678 833.084L333.161 835.016C378.835 847.255 425.782 820.149 438.021 774.475L436.089 773.958ZM376.962 671.547C421.569 683.5 448.041 729.351 436.089 773.958L438.021 774.475C450.259 728.801 423.154 681.854 377.48 669.616L376.962 671.547ZM291.445 621.404C303.353 642.029 322.967 657.079 345.971 663.243L346.489 661.312C323.997 655.285 304.82 640.57 293.177 620.404L291.445 621.404ZM282.474 553.264C276.31 576.268 279.537 600.779 291.445 621.404L293.177 620.404C281.534 600.238 278.379 576.273 284.406 553.781L282.474 553.264ZM232.169 417.93C186.495 405.692 139.548 432.797 127.309 478.471L129.241 478.989C141.194 434.382 187.044 407.91 231.652 419.862L232.169 417.93ZM231.652 419.862C276.259 431.815 302.731 477.665 290.778 522.273L292.71 522.79C304.948 477.116 277.843 430.169 232.169 417.93L231.652 419.862Z" fill="#DBB66B" mask="url(#path-9-inside-5_296_554)"/>
<mask id="path-11-inside-6_296_554" fill="white">
<path fill-rule="evenodd" clip-rule="evenodd" d="M21.9008 875.726C9.80539 920.866 36.5939 967.265 81.7345 979.361V979.361C126.875 991.456 173.274 964.668 185.37 919.527L193.674 888.536C199.769 865.788 214.651 846.393 235.047 834.617V834.617C255.442 822.842 279.68 819.651 302.429 825.746L333.42 834.05C378.56 846.146 424.959 819.357 437.055 774.217V774.217C449.15 729.076 422.362 682.677 377.221 670.582V670.582C332.08 658.486 285.681 685.275 273.586 730.415L265.282 761.406C259.187 784.154 244.304 803.55 223.909 815.325V815.325C203.513 827.1 179.275 830.291 156.527 824.196L125.536 815.892C80.3952 803.797 33.9962 830.585 21.9008 875.726V875.726Z"/>
</mask>
<path fill-rule="evenodd" clip-rule="evenodd" d="M21.9008 875.726C9.80539 920.866 36.5939 967.265 81.7345 979.361V979.361C126.875 991.456 173.274 964.668 185.37 919.527L193.674 888.536C199.769 865.788 214.651 846.393 235.047 834.617V834.617C255.442 822.842 279.68 819.651 302.429 825.746L333.42 834.05C378.56 846.146 424.959 819.357 437.055 774.217V774.217C449.15 729.076 422.362 682.677 377.221 670.582V670.582C332.08 658.486 285.681 685.275 273.586 730.415L265.282 761.406C259.187 784.154 244.304 803.55 223.909 815.325V815.325C203.513 827.1 179.275 830.291 156.527 824.196L125.536 815.892C80.3952 803.797 33.9962 830.585 21.9008 875.726V875.726Z" fill="#20252A"/>
<path d="M194.64 888.795L186.336 919.786L184.404 919.268L192.708 888.277L194.64 888.795ZM333.161 835.016L302.17 826.712L302.687 824.78L333.679 833.084L333.161 835.016ZM264.316 761.147L272.62 730.156L274.552 730.674L266.248 761.665L264.316 761.147ZM125.795 814.926L156.786 823.23L156.268 825.162L125.277 816.858L125.795 814.926ZM125.277 816.858C80.6699 804.905 34.8192 831.377 22.8667 875.985L20.9349 875.467C33.1732 829.793 80.1206 802.688 125.795 814.926L125.277 816.858ZM224.409 816.191C203.783 828.099 179.272 831.326 156.268 825.162L156.786 823.23C179.278 829.257 203.243 826.102 223.409 814.459L224.409 816.191ZM266.248 761.665C260.084 784.669 245.034 804.283 224.409 816.191L223.409 814.459C243.574 802.816 258.289 783.639 264.316 761.147L266.248 761.665ZM376.962 671.547C332.355 659.595 286.504 686.067 274.552 730.674L272.62 730.156C284.858 684.482 331.806 657.377 377.48 669.616L376.962 671.547ZM436.089 773.958C448.041 729.351 421.569 683.5 376.962 671.547L377.48 669.616C423.154 681.854 450.259 728.801 438.021 774.475L436.089 773.958ZM333.679 833.084C378.286 845.037 424.136 818.565 436.089 773.958L438.021 774.475C425.782 820.15 378.835 847.255 333.161 835.016L333.679 833.084ZM234.547 833.751C255.172 821.843 279.683 818.616 302.687 824.78L302.17 826.712C279.678 820.685 255.713 823.841 235.547 835.483L234.547 833.751ZM192.708 888.277C198.872 865.273 213.922 845.659 234.547 833.751L235.547 835.483C215.381 847.126 200.666 866.303 194.64 888.795L192.708 888.277ZM81.4757 980.327C35.8016 968.088 8.69652 921.141 20.9349 875.467L22.8667 875.985C10.9143 920.592 37.3861 966.442 81.9933 978.395L81.4757 980.327ZM81.9933 978.395C126.601 990.347 172.451 963.875 184.404 919.268L186.336 919.786C174.097 965.46 127.15 992.565 81.4757 980.327L81.9933 978.395Z" fill="#DBB66B" mask="url(#path-11-inside-6_296_554)"/>
<mask id="path-13-inside-7_296_554" fill="white">
<path fill-rule="evenodd" clip-rule="evenodd" d="M220.399 928.913C208.303 974.054 235.092 1020.45 280.232 1032.55V1032.55C325.373 1044.64 371.772 1017.86 383.867 972.714L392.171 941.723C398.267 918.975 413.149 899.58 433.545 887.805V887.805C453.94 876.029 478.178 872.838 500.926 878.934L531.917 887.238C577.058 899.333 623.457 872.545 635.553 827.404V827.404C647.648 782.263 620.859 735.864 575.719 723.769V723.769C530.578 711.673 484.179 738.462 472.084 783.603L463.78 814.593C457.684 837.342 442.802 856.737 422.406 868.512V868.512C402.011 880.288 377.773 883.479 355.025 877.383L324.034 869.079C278.893 856.984 232.494 883.772 220.399 928.913V928.913Z"/>
</mask>
<path fill-rule="evenodd" clip-rule="evenodd" d="M220.399 928.913C208.303 974.054 235.092 1020.45 280.232 1032.55V1032.55C325.373 1044.64 371.772 1017.86 383.867 972.714L392.171 941.723C398.267 918.975 413.149 899.58 433.545 887.805V887.805C453.94 876.029 478.178 872.838 500.926 878.934L531.917 887.238C577.058 899.333 623.457 872.545 635.553 827.404V827.404C647.648 782.263 620.859 735.864 575.719 723.769V723.769C530.578 711.673 484.179 738.462 472.084 783.603L463.78 814.593C457.684 837.342 442.802 856.737 422.406 868.512V868.512C402.011 880.288 377.773 883.479 355.025 877.383L324.034 869.079C278.893 856.984 232.494 883.772 220.399 928.913V928.913Z" fill="#282D33"/>
<path d="M393.137 941.982L384.833 972.973L382.901 972.456L391.205 941.464L393.137 941.982ZM531.659 888.204L500.668 879.899L501.185 877.968L532.176 886.272L531.659 888.204ZM462.814 814.335L471.118 783.344L473.05 783.861L464.746 814.852L462.814 814.335ZM324.292 868.113L355.283 876.417L354.766 878.349L323.775 870.045L324.292 868.113ZM323.775 870.045C279.168 858.093 233.317 884.565 221.365 929.172L219.433 928.654C231.671 882.98 278.618 855.875 324.292 868.113L323.775 870.045ZM422.906 869.378C402.281 881.286 377.77 884.513 354.766 878.349L355.283 876.417C377.776 882.444 401.74 879.289 421.906 867.646L422.906 869.378ZM464.746 814.852C458.582 837.857 443.532 857.47 422.906 869.378L421.906 867.646C442.072 856.003 456.787 836.827 462.814 814.335L464.746 814.852ZM575.46 724.735C530.853 712.782 485.002 739.254 473.05 783.861L471.118 783.344C483.356 737.67 530.303 710.565 575.978 722.803L575.46 724.735ZM634.587 827.145C646.539 782.538 620.067 736.687 575.46 724.735L575.978 722.803C621.652 735.041 648.757 781.989 636.518 827.663L634.587 827.145ZM532.176 886.272C576.783 898.224 622.634 871.752 634.587 827.145L636.518 827.663C624.28 873.337 577.333 900.442 531.659 888.204L532.176 886.272ZM433.045 886.939C453.67 875.031 478.181 871.804 501.185 877.968L500.668 879.899C478.176 873.873 454.211 877.028 434.045 888.671L433.045 886.939ZM391.205 941.464C397.37 918.46 412.42 898.846 433.045 886.939L434.045 888.671C413.879 900.313 399.164 919.49 393.137 941.982L391.205 941.464ZM279.974 1033.51C234.299 1021.28 207.194 974.328 219.433 928.654L221.365 929.172C209.412 973.779 235.884 1019.63 280.491 1031.58L279.974 1033.51ZM280.491 1031.58C325.098 1043.53 370.949 1017.06 382.901 972.456L384.833 972.973C372.595 1018.65 325.648 1045.75 279.974 1033.51L280.491 1031.58Z" fill="#DBB66B" mask="url(#path-13-inside-7_296_554)"/>
<mask id="path-15-inside-8_296_554" fill="white">
<path fill-rule="evenodd" clip-rule="evenodd" d="M418.896 982.1C406.801 1027.24 433.589 1073.64 478.73 1085.74V1085.74C523.871 1097.83 570.27 1071.04 582.365 1025.9L590.669 994.911C596.765 972.163 611.647 952.767 632.043 940.992V940.992C652.438 929.217 676.676 926.026 699.424 932.121L730.415 940.425C775.556 952.52 821.955 925.732 834.05 880.591V880.591C846.146 835.451 819.357 789.052 774.217 776.956V776.956C729.076 764.861 682.677 791.649 670.582 836.79L662.278 867.781C656.182 890.529 641.3 909.924 620.904 921.7V921.7C600.509 933.475 576.271 936.666 553.522 930.571L522.531 922.267C477.391 910.171 430.992 936.96 418.896 982.1V982.1Z"/>
</mask>
<path fill-rule="evenodd" clip-rule="evenodd" d="M418.896 982.1C406.801 1027.24 433.589 1073.64 478.73 1085.74V1085.74C523.871 1097.83 570.27 1071.04 582.365 1025.9L590.669 994.911C596.765 972.163 611.647 952.767 632.043 940.992V940.992C652.438 929.217 676.676 926.026 699.424 932.121L730.415 940.425C775.556 952.52 821.955 925.732 834.05 880.591V880.591C846.146 835.451 819.357 789.052 774.217 776.956V776.956C729.076 764.861 682.677 791.649 670.582 836.79L662.278 867.781C656.182 890.529 641.3 909.924 620.904 921.7V921.7C600.509 933.475 576.271 936.666 553.522 930.571L522.531 922.267C477.391 910.171 430.992 936.96 418.896 982.1V982.1Z" fill="#20252A"/>
<path d="M662.278 867.781L661.312 867.522L662.278 867.781ZM670.582 836.79L671.547 837.049L670.582 836.79ZM590.669 994.911L591.635 995.17L590.669 994.911ZM582.365 1025.9L581.399 1025.64L582.365 1025.9ZM591.635 995.17L583.331 1026.16L581.399 1025.64L589.703 994.652L591.635 995.17ZM730.156 941.391L699.165 933.087L699.683 931.155L730.674 939.459L730.156 941.391ZM661.312 867.522L669.616 836.531L671.547 837.049L663.244 868.04L661.312 867.522ZM522.79 921.301L553.781 929.605L553.264 931.537L522.273 923.233L522.79 921.301ZM522.273 923.233C477.665 911.28 431.815 937.752 419.862 982.359L417.93 981.842C430.169 936.167 477.116 909.062 522.79 921.301L522.273 923.233ZM621.404 922.566C600.779 934.474 576.268 937.701 553.264 931.537L553.781 929.605C576.273 935.632 600.238 932.476 620.404 920.834L621.404 922.566ZM663.244 868.04C657.079 891.044 642.029 910.658 621.404 922.566L620.404 920.834C640.57 909.191 655.285 890.014 661.312 867.522L663.244 868.04ZM773.958 777.922C729.351 765.97 683.5 792.442 671.547 837.049L669.616 836.531C681.854 790.857 728.801 763.752 774.475 775.99L773.958 777.922ZM833.084 880.333C845.037 835.725 818.565 789.875 773.958 777.922L774.475 775.99C820.15 788.229 847.255 835.176 835.016 880.85L833.084 880.333ZM730.674 939.459C775.281 951.412 821.132 924.94 833.084 880.333L835.016 880.85C822.778 926.524 775.831 953.629 730.156 941.391L730.674 939.459ZM631.543 940.126C652.168 928.218 676.679 924.991 699.683 931.155L699.165 933.087C676.673 927.06 652.708 930.215 632.543 941.858L631.543 940.126ZM589.703 994.652C595.867 971.648 610.917 952.034 631.543 940.126L632.543 941.858C612.377 953.501 597.662 972.678 591.635 995.17L589.703 994.652ZM478.471 1086.7C432.797 1074.46 405.692 1027.52 417.93 981.842L419.862 982.359C407.91 1026.97 434.382 1072.82 478.989 1084.77L478.471 1086.7ZM478.989 1084.77C523.596 1096.72 569.447 1070.25 581.399 1025.64L583.331 1026.16C571.093 1071.83 524.145 1098.94 478.471 1086.7L478.989 1084.77Z" fill="#DBB66B" mask="url(#path-15-inside-8_296_554)"/>
<mask id="path-17-inside-9_296_554" fill="white">
<path fill-rule="evenodd" clip-rule="evenodd" d="M433.148 134.922C445.243 89.7811 491.642 62.9926 536.783 75.088V75.088C581.924 87.1834 608.712 133.582 596.617 178.723L588.313 209.714C582.217 232.462 585.408 256.7 597.184 277.096V277.096C608.959 297.491 628.354 312.374 651.102 318.469L682.093 326.773C727.234 338.869 754.023 385.268 741.927 430.408V430.408C729.832 475.549 683.433 502.337 638.292 490.242V490.242C593.151 478.147 566.363 431.748 578.458 386.607L586.762 355.616C592.858 332.868 589.667 308.63 577.891 288.234V288.234C566.116 267.839 546.721 252.956 523.973 246.861L492.982 238.557C447.841 226.461 421.053 180.062 433.148 134.922V134.922Z"/>
</mask>
<path fill-rule="evenodd" clip-rule="evenodd" d="M433.148 134.922C445.243 89.7811 491.642 62.9926 536.783 75.088V75.088C581.924 87.1834 608.712 133.582 596.617 178.723L588.313 209.714C582.217 232.462 585.408 256.7 597.184 277.096V277.096C608.959 297.491 628.354 312.374 651.102 318.469L682.093 326.773C727.234 338.869 754.023 385.268 741.927 430.408V430.408C729.832 475.549 683.433 502.337 638.292 490.242V490.242C593.151 478.147 566.363 431.748 578.458 386.607L586.762 355.616C592.858 332.868 589.667 308.63 577.891 288.234V288.234C566.116 267.839 546.721 252.956 523.973 246.861L492.982 238.557C447.841 226.461 421.053 180.062 433.148 134.922V134.922Z" fill="#20252A"/>
<path d="M578.458 386.607L577.492 386.348L578.458 386.607ZM589.279 209.973L597.583 178.982L595.651 178.464L587.347 209.455L589.279 209.973ZM682.352 325.807L651.361 317.503L650.844 319.435L681.835 327.739L682.352 325.807ZM585.796 355.357L577.492 386.348L579.424 386.866L587.728 355.875L585.796 355.357ZM492.723 239.523L523.714 247.827L524.231 245.895L493.24 237.591L492.723 239.523ZM493.24 237.591C448.633 225.638 422.161 179.788 434.114 135.181L432.182 134.663C419.944 180.337 447.049 227.284 492.723 239.523L493.24 237.591ZM578.757 287.734C566.849 267.109 547.236 252.059 524.231 245.895L523.714 247.827C546.206 253.853 565.383 268.568 577.025 288.734L578.757 287.734ZM587.728 355.875C593.892 332.87 590.665 308.359 578.757 287.734L577.025 288.734C588.668 308.9 591.823 332.865 585.796 355.357L587.728 355.875ZM638.551 489.276C593.944 477.324 567.472 431.473 579.424 386.866L577.492 386.348C565.254 432.022 592.359 478.97 638.033 491.208L638.551 489.276ZM740.961 430.149C729.009 474.757 683.158 501.229 638.551 489.276L638.033 491.208C683.707 503.446 730.655 476.341 742.893 430.667L740.961 430.149ZM681.835 327.739C726.442 339.692 752.914 385.542 740.961 430.149L742.893 430.667C755.131 384.993 728.026 338.046 682.352 325.807L681.835 327.739ZM596.318 277.596C608.226 298.221 627.839 313.271 650.844 319.435L651.361 317.503C628.869 311.476 609.692 296.762 598.05 276.596L596.318 277.596ZM587.347 209.455C581.183 232.46 584.41 256.971 596.318 277.596L598.05 276.596C586.407 256.43 583.252 232.465 589.279 209.973L587.347 209.455ZM537.042 74.1221C491.368 61.8837 444.42 88.9888 432.182 134.663L434.114 135.181C446.066 90.5733 491.917 64.1014 536.524 76.0539L537.042 74.1221ZM536.524 76.0539C581.131 88.0064 607.603 133.857 595.651 178.464L597.583 178.982C609.821 133.308 582.716 86.3604 537.042 74.1221L536.524 76.0539Z" fill="#DBB66B" mask="url(#path-17-inside-9_296_554)"/>
<mask id="path-19-inside-10_296_554" fill="white">
<path fill-rule="evenodd" clip-rule="evenodd" d="M326.773 531.917C338.869 486.777 385.268 459.988 430.408 472.084V472.084C475.549 484.179 502.338 530.578 490.242 575.719L481.938 606.71C475.843 629.458 479.034 653.696 490.809 674.091V674.091C502.584 694.487 521.98 709.369 544.728 715.465L575.719 723.769C620.86 735.864 647.648 782.263 635.553 827.404V827.404C623.457 872.544 577.058 899.333 531.918 887.238V887.238C486.777 875.142 459.988 828.743 472.084 783.602L480.388 752.612C486.483 729.863 483.292 705.625 471.517 685.23V685.23C459.741 664.834 440.346 649.952 417.598 643.856L386.607 635.552C341.466 623.457 314.678 577.058 326.773 531.917V531.917Z"/>
</mask>
<path fill-rule="evenodd" clip-rule="evenodd" d="M326.773 531.917C338.869 486.777 385.268 459.988 430.408 472.084V472.084C475.549 484.179 502.338 530.578 490.242 575.719L481.938 606.71C475.843 629.458 479.034 653.696 490.809 674.091V674.091C502.584 694.487 521.98 709.369 544.728 715.465L575.719 723.769C620.86 735.864 647.648 782.263 635.553 827.404V827.404C623.457 872.544 577.058 899.333 531.918 887.238V887.238C486.777 875.142 459.988 828.743 472.084 783.602L480.388 752.612C486.483 729.863 483.292 705.625 471.517 685.23V685.23C459.741 664.834 440.346 649.952 417.598 643.856L386.607 635.552C341.466 623.457 314.678 577.058 326.773 531.917V531.917Z" fill="#282D33"/>
<path d="M482.904 606.968L491.208 575.977L489.276 575.46L480.972 606.451L482.904 606.968ZM575.978 722.803L544.987 714.499L544.469 716.431L575.46 724.735L575.978 722.803ZM479.422 752.353L471.118 783.344L473.05 783.861L481.354 752.87L479.422 752.353ZM386.348 636.518L417.339 644.822L417.857 642.89L386.866 634.586L386.348 636.518ZM386.866 634.586C342.259 622.634 315.787 576.783 327.739 532.176L325.807 531.658C313.569 577.333 340.674 624.28 386.348 636.518L386.866 634.586ZM472.383 684.73C460.475 664.105 440.861 649.054 417.857 642.89L417.339 644.822C439.831 650.849 459.008 665.564 470.651 685.73L472.383 684.73ZM481.354 752.87C487.518 729.866 484.291 705.355 472.383 684.73L470.651 685.73C482.294 705.896 485.449 729.861 479.422 752.353L481.354 752.87ZM532.176 886.272C487.569 874.319 461.097 828.468 473.05 783.861L471.118 783.344C458.88 829.018 485.985 875.965 531.659 888.203L532.176 886.272ZM634.587 827.145C622.634 871.752 576.784 898.224 532.176 886.272L531.659 888.203C577.333 900.442 624.28 873.337 636.519 827.663L634.587 827.145ZM575.46 724.735C620.067 736.687 646.539 782.538 634.587 827.145L636.519 827.663C648.757 781.989 621.652 735.041 575.978 722.803L575.46 724.735ZM489.943 674.591C501.851 695.217 521.465 710.267 544.469 716.431L544.987 714.499C522.495 708.472 503.318 693.757 491.675 673.591L489.943 674.591ZM480.972 606.451C474.808 629.455 478.035 653.966 489.943 674.591L491.675 673.591C480.032 653.426 476.877 629.461 482.904 606.968L480.972 606.451ZM430.667 471.118C384.993 458.879 338.046 485.984 325.807 531.658L327.739 532.176C339.692 487.569 385.542 461.097 430.15 473.049L430.667 471.118ZM430.15 473.049C474.757 485.002 501.229 530.853 489.276 575.46L491.208 575.977C503.446 530.303 476.341 483.356 430.667 471.118L430.15 473.049Z" fill="#DBB66B" mask="url(#path-19-inside-10_296_554)"/>
<mask id="path-21-inside-11_296_554" fill="white">
<path fill-rule="evenodd" clip-rule="evenodd" d="M631.646 188.109C643.741 142.968 690.14 116.18 735.281 128.275V128.275C780.421 140.371 807.21 186.77 795.115 231.91L786.81 262.902C780.715 285.65 783.906 309.888 795.681 330.283V330.283C807.457 350.679 826.852 365.561 849.6 371.657L880.591 379.961C925.732 392.056 952.52 438.455 940.425 483.596V483.596C928.33 528.736 881.931 555.525 836.79 543.429V543.429C791.649 531.334 764.861 484.935 776.956 439.794L785.26 408.803C791.356 386.055 788.165 361.817 776.389 341.422V341.422C764.614 321.026 745.219 306.144 722.47 300.048L691.479 291.744C646.339 279.649 619.55 233.25 631.646 188.109V188.109Z"/>
</mask>
<path fill-rule="evenodd" clip-rule="evenodd" d="M631.646 188.109C643.741 142.968 690.14 116.18 735.281 128.275V128.275C780.421 140.371 807.21 186.77 795.115 231.91L786.81 262.902C780.715 285.65 783.906 309.888 795.681 330.283V330.283C807.457 350.679 826.852 365.561 849.6 371.657L880.591 379.961C925.732 392.056 952.52 438.455 940.425 483.596V483.596C928.33 528.736 881.931 555.525 836.79 543.429V543.429C791.649 531.334 764.861 484.935 776.956 439.794L785.26 408.803C791.356 386.055 788.165 361.817 776.389 341.422V341.422C764.614 321.026 745.219 306.144 722.47 300.048L691.479 291.744C646.339 279.649 619.55 233.25 631.646 188.109V188.109Z" fill="#20252A"/>
<path d="M787.776 263.16L796.08 232.169L794.149 231.652L785.845 262.643L787.776 263.16ZM880.85 378.995L849.859 370.691L849.341 372.622L880.332 380.926L880.85 378.995ZM784.294 408.545L775.99 439.536L777.922 440.053L786.226 409.062L784.294 408.545ZM691.221 292.71L722.211 301.014L722.729 299.082L691.738 290.778L691.221 292.71ZM691.738 290.778C647.131 278.826 620.659 232.975 632.612 188.368L630.68 187.85C618.441 233.524 645.547 280.472 691.221 292.71L691.738 290.778ZM777.255 340.922C765.347 320.296 745.734 305.246 722.729 299.082L722.211 301.014C744.704 307.041 763.88 321.756 775.523 341.922L777.255 340.922ZM786.226 409.062C792.39 386.058 789.163 361.547 777.255 340.922L775.523 341.922C787.166 362.087 790.321 386.052 784.294 408.545L786.226 409.062ZM837.049 542.463C792.442 530.511 765.97 484.66 777.922 440.053L775.99 439.536C763.752 485.21 790.857 532.157 836.531 544.395L837.049 542.463ZM939.459 483.337C927.507 527.944 881.656 554.416 837.049 542.463L836.531 544.395C882.205 556.634 929.153 529.529 941.391 483.854L939.459 483.337ZM880.332 380.926C924.94 392.879 951.412 438.73 939.459 483.337L941.391 483.854C953.629 438.18 926.524 391.233 880.85 378.995L880.332 380.926ZM794.815 330.783C806.723 351.408 826.337 366.458 849.341 372.622L849.859 370.691C827.367 364.664 808.19 349.949 796.547 329.783L794.815 330.783ZM785.845 262.643C779.681 285.647 782.907 310.158 794.815 330.783L796.547 329.783C784.905 309.617 781.75 285.652 787.776 263.16L785.845 262.643ZM735.54 127.309C689.865 115.071 642.918 142.176 630.68 187.85L632.612 188.368C644.564 143.761 690.415 117.289 735.022 129.241L735.54 127.309ZM735.022 129.241C779.629 141.194 806.101 187.044 794.149 231.652L796.08 232.169C808.319 186.495 781.214 139.548 735.54 127.309L735.022 129.241Z" fill="#DBB66B" mask="url(#path-21-inside-11_296_554)"/>
<mask id="path-23-inside-12_296_554" fill="white">
<path fill-rule="evenodd" clip-rule="evenodd" d="M525.271 585.105C537.366 539.964 583.765 513.176 628.906 525.271V525.271C674.047 537.366 700.835 583.765 688.74 628.906L680.436 659.897C674.34 682.645 677.531 706.883 689.307 727.279V727.279C701.082 747.674 720.477 762.557 743.226 768.652L774.217 776.956C819.357 789.052 846.146 835.451 834.05 880.591V880.591C821.955 925.732 775.556 952.52 730.415 940.425V940.425C685.275 928.33 658.486 881.931 670.582 836.79L678.886 805.799C684.981 783.051 681.79 758.813 670.015 738.417V738.417C658.239 718.022 638.844 703.139 616.096 697.044L585.105 688.74C539.964 676.644 513.176 630.245 525.271 585.105V585.105Z"/>
</mask>
<path fill-rule="evenodd" clip-rule="evenodd" d="M525.271 585.105C537.366 539.964 583.765 513.176 628.906 525.271V525.271C674.047 537.366 700.835 583.765 688.74 628.906L680.436 659.897C674.34 682.645 677.531 706.883 689.307 727.279V727.279C701.082 747.674 720.477 762.557 743.226 768.652L774.217 776.956C819.357 789.052 846.146 835.451 834.05 880.591V880.591C821.955 925.732 775.556 952.52 730.415 940.425V940.425C685.275 928.33 658.486 881.931 670.582 836.79L678.886 805.799C684.981 783.051 681.79 758.813 670.015 738.417V738.417C658.239 718.022 638.844 703.139 616.096 697.044L585.105 688.74C539.964 676.644 513.176 630.245 525.271 585.105V585.105Z" fill="#20252A"/>
<path d="M680.436 659.897L681.402 660.156L680.436 659.897ZM688.74 628.906L687.774 628.647L688.74 628.906ZM681.402 660.156L689.706 629.165L687.774 628.647L679.47 659.638L681.402 660.156ZM774.475 775.99L743.484 767.686L742.967 769.618L773.958 777.922L774.475 775.99ZM677.92 805.54L669.616 836.531L671.547 837.049L679.851 806.058L677.92 805.54ZM584.846 689.706L615.837 698.01L616.354 696.078L585.364 687.774L584.846 689.706ZM585.364 687.774C540.756 675.821 514.285 629.971 526.237 585.364L524.305 584.846C512.067 630.52 539.172 677.467 584.846 689.706L585.364 687.774ZM670.881 737.917C658.973 717.292 639.359 702.242 616.354 696.078L615.837 698.01C638.329 704.036 657.506 718.751 669.149 738.917L670.881 737.917ZM679.851 806.058C686.015 783.053 682.789 758.543 670.881 737.917L669.149 738.917C680.791 759.083 683.946 783.048 677.92 805.54L679.851 806.058ZM730.674 939.459C686.067 927.507 659.595 881.656 671.547 837.049L669.616 836.531C657.377 882.205 684.482 929.153 730.156 941.391L730.674 939.459ZM833.084 880.332C821.132 924.94 775.281 951.412 730.674 939.459L730.156 941.391C775.831 953.629 822.778 926.524 835.016 880.85L833.084 880.332ZM773.958 777.922C818.565 789.875 845.037 835.725 833.084 880.332L835.016 880.85C847.255 835.176 820.15 788.229 774.475 775.99L773.958 777.922ZM688.441 727.779C700.349 748.404 719.962 763.454 742.967 769.618L743.484 767.686C720.992 761.66 701.816 746.945 690.173 726.779L688.441 727.779ZM679.47 659.638C673.306 682.643 676.533 707.154 688.441 727.779L690.173 726.779C678.53 706.613 675.375 682.648 681.402 660.156L679.47 659.638ZM629.165 524.305C583.491 512.067 536.544 539.172 524.305 584.846L526.237 585.364C538.189 540.756 584.04 514.284 628.647 526.237L629.165 524.305ZM628.647 526.237C673.255 538.189 699.726 584.04 687.774 628.647L689.706 629.165C701.944 583.491 674.839 536.543 629.165 524.305L628.647 526.237Z" fill="#DBB66B" mask="url(#path-23-inside-12_296_554)"/>
<path d="M191.832 241.533C198.201 217.765 222.631 203.661 246.399 210.029L323.797 230.768C347.565 237.136 361.669 261.567 355.301 285.335L334.562 362.732C328.194 386.5 303.763 400.605 279.995 394.237L202.598 373.498C178.83 367.129 164.725 342.699 171.093 318.931L191.832 241.533Z" fill="#282D33"/>
<rect x="96.9887" y="595.494" width="169.235" height="169.235" rx="44.5536" transform="rotate(15 96.9887 595.494)" fill="#282D33"/>
<rect x="150.176" y="396.996" width="169.235" height="169.235" rx="44.5536" transform="rotate(15 150.176 396.996)" fill="#20252A"/>
<rect x="43.8014" y="793.991" width="169.235" height="169.235" rx="44.5536" transform="rotate(15 43.8014 793.991)" fill="#20252B"/>
<rect x="455.049" y="53.1873" width="169.235" height="169.235" rx="44.5536" transform="rotate(15 455.049 53.1873)" fill="#20252A"/>
<rect x="401.861" y="251.685" width="169.235" height="169.235" rx="44.5536" transform="rotate(15 401.861 251.685)" fill="#20252A"/>
<rect x="295.487" y="648.681" width="169.235" height="169.235" rx="44.5536" transform="rotate(15 295.487 648.681)" fill="#20252A"/>
<rect x="348.674" y="450.183" width="169.235" height="169.235" rx="44.5536" transform="rotate(15 348.674 450.183)" fill="#282D33"/>
<rect x="242.299" y="847.179" width="169.235" height="169.235" rx="44.5536" transform="rotate(15 242.299 847.179)" fill="#282D33"/>
<rect x="653.546" y="106.375" width="169.235" height="169.235" rx="44.5536" transform="rotate(15 653.546 106.375)" fill="#20252A"/>
<rect x="600.359" y="304.873" width="169.235" height="169.235" rx="44.5536" transform="rotate(15 600.359 304.873)" fill="#282D33"/>
<rect x="493.984" y="701.868" width="169.235" height="169.235" rx="44.5536" transform="rotate(15 493.984 701.868)" fill="#282D33"/>
<rect x="547.172" y="503.37" width="169.235" height="169.235" rx="44.5536" transform="rotate(15 547.172 503.37)" fill="#20252A"/>
<rect x="440.797" y="900.366" width="169.235" height="169.235" rx="44.5536" transform="rotate(15 440.797 900.366)" fill="#20252A"/>
<rect x="852.044" y="159.562" width="169.235" height="169.235" rx="44.5536" transform="rotate(15 852.044 159.562)" fill="#20252A"/>
<rect x="798.857" y="358.06" width="169.235" height="169.235" rx="44.5536" transform="rotate(15 798.857 358.06)" fill="#20252A"/>
<rect x="692.482" y="755.056" width="169.235" height="169.235" rx="44.5536" transform="rotate(15 692.482 755.056)" fill="#20252A"/>
<rect x="745.67" y="556.558" width="169.235" height="169.235" rx="44.5536" transform="rotate(15 745.67 556.558)" fill="#20252A"/>
<rect x="639.295" y="953.553" width="169.235" height="169.235" rx="44.5536" transform="rotate(15 639.295 953.553)" fill="#20252A"/>
<rect x="256.551" width="169.235" height="169.235" rx="44.5536" transform="rotate(15 256.551 0)" fill="#282D33"/>
</svg>
