<svg width="1065" height="274" viewBox="0 0 1065 274" fill="none" xmlns="http://www.w3.org/2000/svg">
<g clip-path="url(#clip0_1_2)">
<rect width="1065" height="274" fill="white"/>
<path d="M58 48V21H74.3333V32.3684H98.8333V21H115.167V32.3684H139.667V21H156V48H58Z" fill="#D8AE5E"/>
<path d="M194 71L194 110.817C194 134.8 193.909 155.524 192.325 173.293C190.739 191.088 187.702 205.213 182.214 216.195C176.857 226.915 169.046 234.89 157.188 240.338C145.076 245.902 128.357 249 105.059 249C82.274 249 66.1955 244.225 54.6928 236.818C43.2401 229.443 35.6446 219.023 30.5547 206.493C21.0382 183.067 20.6717 153.62 20.3236 125.651C20.2897 122.925 20.2559 120.214 20.2139 117.523C19.9733 102.119 19.9733 88.5169 20.0334 78.7673C20.0517 75.8015 20.0756 73.1931 20.0999 71H194Z" stroke="url(#paint0_linear_1_2)" stroke-width="16"/>
<path d="M73 158H43C43 158 43.1875 177.941 49 193C54.8125 208.059 73 222 73 222V158Z" fill="#F2CB80"/>
<path d="M126 131H88V226H126V131Z" fill="url(#paint1_radial_1_2)"/>
<path d="M172 105H141V222C141 222 172 214.452 172 174.823V105Z" fill="#D8AE5E"/>
<path d="M282.807 165H267.244V41.678H286.747L307.826 118.114L328.905 41.678H348.408V165H332.845V74.774L315.903 138.208H299.749L282.807 74.971V165ZM381.43 192.186H369.61V178.002H377.687C383.334 178.002 386.749 175.835 387.931 171.501L389.901 163.424H380.248L360.154 68.864H378.278L392.856 149.437L406.449 68.864H424.376L404.085 174.259C401.196 186.21 393.644 192.186 381.43 192.186ZM518.41 56.059H482.556V96.641H510.924V110.628H482.556V165H464.629V41.678H518.41V56.059ZM565.302 68.864H583.032V165H565.302V157.317C563.595 162.439 559.523 165 553.088 165H545.996C534.176 165 528.266 159.221 528.266 147.664V68.864H545.996V144.906C545.996 147.27 546.39 148.846 547.178 149.634C547.966 150.291 549.542 150.619 551.906 150.619H558.801C561.165 150.619 562.807 150.094 563.726 149.043C564.777 147.992 565.302 146.219 565.302 143.724V68.864ZM630.358 68.864H637.253C649.204 68.864 655.18 74.7083 655.18 86.397V165H637.45V88.958C637.45 86.594 637.056 85.0837 636.268 84.427C635.48 83.639 633.904 83.245 631.54 83.245H624.645C622.281 83.245 620.574 83.7703 619.523 84.821C618.604 85.8717 618.144 87.6447 618.144 90.14V165H600.414V68.864H618.144V76.547C619.851 71.425 623.923 68.864 630.358 68.864ZM708.219 33.207H725.949V165H708.219V157.317C706.512 162.439 702.441 165 696.005 165H688.913C677.093 165 671.183 159.221 671.183 147.664V86.2C671.183 74.5113 677.093 68.667 688.913 68.667H696.005C702.441 68.667 706.512 71.228 708.219 76.35V33.207ZM694.823 150.619H701.718C704.082 150.619 705.724 150.094 706.643 149.043C707.694 147.992 708.219 146.219 708.219 143.724V89.943C708.219 87.4477 707.694 85.6747 706.643 84.624C705.724 83.5733 704.082 83.048 701.718 83.048H694.823C692.459 83.048 690.883 83.442 690.095 84.23C689.307 85.018 688.913 86.5283 688.913 88.761V144.906C688.913 147.27 689.307 148.846 690.095 149.634C690.883 150.291 692.459 150.619 694.823 150.619ZM761.282 68.864H780.588C792.933 68.864 799.106 74.7083 799.106 86.397V122.448H760.297V145.3C760.297 147.533 760.691 149.043 761.479 149.831C762.267 150.619 763.843 151.013 766.207 151.013H775.269C777.633 151.013 779.209 150.619 779.997 149.831C780.785 149.043 781.179 147.467 781.179 145.103V137.223H798.515V147.664C798.515 159.221 792.408 165 780.194 165H761.282C749.068 165 742.961 159.221 742.961 147.664V86.397C742.961 74.7083 749.068 68.864 761.282 68.864ZM760.297 109.446H781.573V88.564C781.573 86.3313 781.179 84.821 780.391 84.033C779.734 83.245 778.224 82.851 775.86 82.851H766.207C763.843 82.851 762.267 83.245 761.479 84.033C760.691 84.821 760.297 86.3313 760.297 88.564V109.446ZM850.198 33.207H867.928V165H850.198V157.317C848.49 162.439 844.419 165 837.984 165H830.892C819.072 165 813.162 159.221 813.162 147.664V86.2C813.162 74.5113 819.072 68.667 830.892 68.667H837.984C844.419 68.667 848.49 71.228 850.198 76.35V33.207ZM836.802 150.619H843.697C846.061 150.619 847.702 150.094 848.622 149.043C849.672 147.992 850.198 146.219 850.198 143.724V89.943C850.198 87.4477 849.672 85.6747 848.622 84.624C847.702 83.5733 846.061 83.048 843.697 83.048H836.802C834.438 83.048 832.862 83.442 832.074 84.23C831.286 85.018 830.892 86.5283 830.892 88.761V144.906C830.892 147.27 831.286 148.846 832.074 149.634C832.862 150.291 834.438 150.619 836.802 150.619ZM969.163 56.059H933.309V96.641H961.677V110.628H933.309V165H915.382V41.678H969.163V56.059ZM1016.84 101.96L1043.24 165H1023.54L1006.99 118.114L990.445 165H971.336L997.34 101.96L973.109 41.678H992.809L1006.99 86.003L1021.37 41.678H1040.68L1016.84 101.96Z" fill="#EFC77A"/>
<path d="M285.74 217.94V221.944H275.86V252H271.44V221.944H261.56V217.94H285.74ZM330.22 217.94V252H325.8V236.4H312.28V252H307.86V217.94H312.28V232.448H325.8V217.94H330.22ZM372.604 217.94V221.944H359.084V232.708H371.564V236.66H359.084V247.996H372.604V252H354.664V217.94H372.604ZM431.574 217.316C435.665 217.316 438.681 218.113 440.622 219.708C442.564 221.303 443.534 223.539 443.534 226.416V227.716C443.534 229.727 442.98 231.512 441.87 233.072C440.761 234.597 439.166 235.672 437.086 236.296L445.926 252H440.986L432.718 237.232C432.441 237.267 431.886 237.284 431.054 237.284C429.668 237.284 428.298 237.232 426.946 237.128V252H422.526V217.524C426.409 217.385 429.425 217.316 431.574 217.316ZM431.47 221.06C430.326 221.06 428.818 221.095 426.946 221.164V233.436C428.818 233.609 430.378 233.696 431.626 233.696C436.618 233.696 439.114 231.668 439.114 227.612V226.572C439.114 224.7 438.508 223.313 437.294 222.412C436.081 221.511 434.14 221.06 431.47 221.06ZM485.188 217.94V221.944H471.668V232.708H484.148V236.66H471.668V247.996H485.188V252H467.248V217.94H485.188ZM530.967 217.94V221.944H521.087V252H516.667V221.944H506.787V217.94H530.967ZM562.625 217.94L573.077 252H568.293L566.057 244.096H553.525L551.289 252H546.765L557.165 217.94H562.625ZM559.817 221.996L554.617 240.144H564.965L559.817 221.996ZM598.725 217.94V252H594.305V217.94H598.725ZM627.603 217.94V248.1H641.123V252H623.183V217.94H627.603ZM698.213 217.316C702.304 217.316 705.337 218.148 707.313 219.812C709.324 221.441 710.329 223.781 710.329 226.832V228.08C710.329 231.339 709.359 233.852 707.417 235.62C705.476 237.388 702.547 238.272 698.629 238.272C697.069 238.272 695.405 238.133 693.637 237.856V252H689.217V217.576C692.164 217.403 695.163 217.316 698.213 217.316ZM698.109 221.06C696.584 221.06 695.093 221.095 693.637 221.164V234.06C695.717 234.337 697.312 234.476 698.421 234.476C703.413 234.476 705.909 232.275 705.909 227.872V226.988C705.909 225.012 705.285 223.539 704.037 222.568C702.789 221.563 700.813 221.06 698.109 221.06ZM741.464 217.316C745.555 217.316 748.571 218.113 750.512 219.708C752.453 221.303 753.424 223.539 753.424 226.416V227.716C753.424 229.727 752.869 231.512 751.76 233.072C750.651 234.597 749.056 235.672 746.976 236.296L755.816 252H750.876L742.608 237.232C742.331 237.267 741.776 237.284 740.944 237.284C739.557 237.284 738.188 237.232 736.836 237.128V252H732.416V217.524C736.299 217.385 739.315 217.316 741.464 217.316ZM741.36 221.06C740.216 221.06 738.708 221.095 736.836 221.164V233.436C738.708 233.609 740.268 233.696 741.516 233.696C746.508 233.696 749.004 231.668 749.004 227.612V226.572C749.004 224.7 748.397 223.313 747.184 222.412C745.971 221.511 744.029 221.06 741.36 221.06ZM787.859 217.316C791.741 217.316 794.601 218.287 796.439 220.228C798.276 222.169 799.195 224.925 799.195 228.496V241.444C799.195 245.015 798.276 247.771 796.439 249.712C794.601 251.653 791.741 252.624 787.859 252.624C783.976 252.624 781.116 251.653 779.279 249.712C777.441 247.771 776.523 245.015 776.523 241.444V228.496C776.523 224.925 777.441 222.169 779.279 220.228C781.116 218.287 783.976 217.316 787.859 217.316ZM787.859 221.216C785.571 221.216 783.837 221.788 782.659 222.932C781.515 224.076 780.943 225.757 780.943 227.976V241.912C780.943 244.131 781.515 245.829 782.659 247.008C783.837 248.152 785.571 248.724 787.859 248.724C790.147 248.724 791.863 248.152 793.007 247.008C794.185 245.829 794.775 244.131 794.775 241.912V228.028C794.775 225.809 794.185 224.128 793.007 222.984C791.863 221.805 790.147 221.216 787.859 221.216ZM832.379 217.316C836.47 217.316 839.503 218.148 841.479 219.812C843.49 221.441 844.495 223.781 844.495 226.832V228.08C844.495 231.339 843.525 233.852 841.583 235.62C839.642 237.388 836.713 238.272 832.795 238.272C831.235 238.272 829.571 238.133 827.803 237.856V252H823.383V217.576C826.33 217.403 829.329 217.316 832.379 217.316ZM832.275 221.06C830.75 221.06 829.259 221.095 827.803 221.164V234.06C829.883 234.337 831.478 234.476 832.587 234.476C837.579 234.476 840.075 232.275 840.075 227.872V226.988C840.075 225.012 839.451 223.539 838.203 222.568C836.955 221.563 834.979 221.06 832.275 221.06ZM910.506 217.94V221.944H896.986V232.708H907.178V236.66H896.986V252H892.566V217.94H910.506ZM937.544 217.94V252H933.124V217.94H937.544ZM971.05 217.316C975.141 217.316 978.157 218.113 980.098 219.708C982.039 221.303 983.01 223.539 983.01 226.416V227.716C983.01 229.727 982.455 231.512 981.346 233.072C980.237 234.597 978.642 235.672 976.562 236.296L985.402 252H980.462L972.194 237.232C971.917 237.267 971.362 237.284 970.53 237.284C969.143 237.284 967.774 237.232 966.422 237.128V252H962.002V217.524C965.885 217.385 968.901 217.316 971.05 217.316ZM970.946 221.06C969.802 221.06 968.294 221.095 966.422 221.164V233.436C968.294 233.609 969.854 233.696 971.102 233.696C976.094 233.696 978.59 231.668 978.59 227.612V226.572C978.59 224.7 977.983 223.313 976.77 222.412C975.557 221.511 973.615 221.06 970.946 221.06ZM1031.22 252L1030.96 224.024L1023.73 248.464H1018.27L1011.04 224.024L1010.78 252H1006.46L1006.78 217.94H1013.33L1021.02 244.512L1028.67 217.94H1035.22L1035.53 252H1031.22Z" fill="#E1C58F"/>
</g>
<defs>
<linearGradient id="paint0_linear_1_2" x1="202" y1="59.1961" x2="11.8061" y2="247.294" gradientUnits="userSpaceOnUse">
<stop stop-color="#DEB25F"/>
<stop offset="1" stop-color="#F3CC81"/>
</linearGradient>
<radialGradient id="paint1_radial_1_2" cx="0" cy="0" r="1" gradientUnits="userSpaceOnUse" gradientTransform="translate(126 131) rotate(111.801) scale(102.318 40.9273)">
<stop stop-color="#D8AE5E"/>
<stop offset="1" stop-color="#F4CD83"/>
</radialGradient>
<clipPath id="clip0_1_2">
<rect width="1065" height="274" fill="white"/>
</clipPath>
</defs>
</svg>
