<svg width="10" height="20" viewBox="0 0 10 20" fill="none" xmlns="http://www.w3.org/2000/svg">
<path d="M5.58203 0.476562V3.45508H4.11719V0.476562H5.58203ZM5.40625 16.4238V19.0312H3.95117V16.4238H5.40625ZM7.35938 13.3379C7.35938 12.9473 7.27148 12.5957 7.0957 12.2832C6.91992 11.9707 6.63021 11.6842 6.22656 11.4238C5.82292 11.1634 5.28255 10.9225 4.60547 10.7012C3.78516 10.4473 3.07552 10.138 2.47656 9.77344C1.88411 9.40885 1.42513 8.95638 1.09961 8.41602C0.780599 7.87565 0.621094 7.22135 0.621094 6.45312C0.621094 5.65234 0.79362 4.96224 1.13867 4.38281C1.48372 3.80339 1.97201 3.35742 2.60352 3.04492C3.23503 2.73242 3.97721 2.57617 4.83008 2.57617C5.49414 2.57617 6.08659 2.67708 6.60742 2.87891C7.12826 3.07422 7.56771 3.36719 7.92578 3.75781C8.29036 4.14844 8.56706 4.62695 8.75586 5.19336C8.95117 5.75977 9.04883 6.41406 9.04883 7.15625H7.25195C7.25195 6.72005 7.19987 6.31966 7.0957 5.95508C6.99154 5.59049 6.83529 5.27474 6.62695 5.00781C6.41862 4.73438 6.16471 4.52604 5.86523 4.38281C5.56576 4.23307 5.2207 4.1582 4.83008 4.1582C4.2832 4.1582 3.83073 4.2526 3.47266 4.44141C3.12109 4.63021 2.86068 4.89714 2.69141 5.24219C2.52214 5.58073 2.4375 5.97461 2.4375 6.42383C2.4375 6.84049 2.52214 7.20508 2.69141 7.51758C2.86068 7.83008 3.14714 8.11328 3.55078 8.36719C3.96094 8.61458 4.52409 8.85872 5.24023 9.09961C6.08008 9.36654 6.79297 9.68229 7.37891 10.0469C7.96484 10.4049 8.41081 10.8477 8.7168 11.375C9.02279 11.8958 9.17578 12.5436 9.17578 13.3184C9.17578 14.1582 8.98698 14.8678 8.60938 15.4473C8.23177 16.0202 7.70117 16.4564 7.01758 16.7559C6.33398 17.0553 5.5332 17.2051 4.61523 17.2051C4.06185 17.2051 3.51497 17.1302 2.97461 16.9805C2.43424 16.8307 1.94596 16.5866 1.50977 16.248C1.07357 15.903 0.72526 15.4505 0.464844 14.8906C0.204427 14.3242 0.0742188 13.6309 0.0742188 12.8105H1.89062C1.89062 13.3639 1.96875 13.8229 2.125 14.1875C2.28776 14.5456 2.5026 14.832 2.76953 15.0469C3.03646 15.2552 3.32943 15.4049 3.64844 15.4961C3.97396 15.5807 4.29622 15.623 4.61523 15.623C5.20117 15.623 5.69596 15.5319 6.09961 15.3496C6.50977 15.1608 6.82227 14.8939 7.03711 14.5488C7.25195 14.2038 7.35938 13.8001 7.35938 13.3379Z" fill="#E2C889"/>
</svg>
