<svg width="64" height="64" viewBox="0 0 64 64" fill="none" xmlns="http://www.w3.org/2000/svg">
<path d="M6 50C20.5792 50 34.7029 51.9499 48.1247 55.6033C50.0633 56.131 52 54.6895 52 52.6803V50M10 12V14C10 15.1046 9.10457 16 8 16H6M6 16V15C6 13.3431 7.34315 12 9 12H54M6 16V40M54 12V14C54 15.1046 54.8954 16 56 16H58M54 12H55C56.6569 12 58 13.3431 58 15V41C58 42.6569 56.6569 44 55 44H54M58 40H56C54.8954 40 54 40.8954 54 42V44M54 44H10M10 44H9C7.34314 44 6 42.6569 6 41V40M10 44V42C10 40.8954 9.10457 40 8 40H6M40 28C40 32.4183 36.4183 36 32 36C27.5817 36 24 32.4183 24 28C24 23.5817 27.5817 20 32 20C36.4183 20 40 23.5817 40 28ZM48 28H48.02V28.02H48V28ZM16 28H16.02V28.02H16V28Z" stroke="#E2C889" stroke-width="2" stroke-linecap="round" stroke-linejoin="round"/>
</svg>
