<svg width="64" height="64" viewBox="0 0 64 64" fill="none" xmlns="http://www.w3.org/2000/svg">
<path d="M30.4516 40.4516L46 56C48.7614 58.7614 53.2386 58.7614 56 56C58.7614 53.2386 58.7614 48.7614 56 46L40.3288 30.3288M30.4516 40.4516L37.1079 32.3689C37.9507 31.3456 39.0778 30.7019 40.3288 30.3288M30.4516 40.4516L18.0382 55.5251C16.7476 57.0921 14.8239 58 12.7938 58C9.0417 58 6 54.9583 6 51.2062C6 49.1761 6.90785 47.2524 8.47494 45.9618L26.7056 30.9483M40.3288 30.3288C41.7938 29.8918 43.4288 29.8261 44.9757 29.9569C45.3133 29.9854 45.655 30 46 30C52.6274 30 58 24.6274 58 18C58 16.2393 57.6208 14.5671 56.9396 13.0608L48.2031 21.7972C45.228 21.1143 42.8861 18.7724 42.2031 15.7972L50.9397 7.06063C49.4332 6.37929 47.7609 6 46 6C39.3726 6 34 11.3726 34 18C34 18.345 34.0146 18.6866 34.0431 19.0243C34.2855 21.8922 33.8528 25.0624 31.6311 26.8921L31.3589 27.1162M26.7056 30.9483L15.7574 20H12L6 10L10 6L20 12V15.7574L31.3589 27.1162M26.7056 30.9483L31.3589 27.1162M49 49L42 42M12.9793 51.0001H12.9993V51.0201H12.9793V51.0001Z" stroke="#E2C889" stroke-width="2" stroke-linecap="round" stroke-linejoin="round"/>
</svg>
