<svg width="22" height="20" viewBox="0 0 22 20" fill="none" xmlns="http://www.w3.org/2000/svg">
<path d="M10.4807 1.4987C10.6729 1.03673 11.3273 1.03673 11.5195 1.4987L13.6454 6.61016C13.7264 6.80492 13.9096 6.93799 14.1199 6.95485L19.6381 7.39724C20.1369 7.43722 20.3391 8.05963 19.9591 8.38514L15.7548 11.9866C15.5946 12.1238 15.5246 12.3391 15.5736 12.5443L16.858 17.9292C16.9741 18.4159 16.4447 18.8005 16.0177 18.5397L11.2933 15.6541C11.1133 15.5441 10.8869 15.5441 10.7069 15.6541L5.98251 18.5397C5.55551 18.8005 5.02606 18.4159 5.14215 17.9292L6.42664 12.5443C6.47558 12.3391 6.40562 12.1238 6.24543 11.9866L2.04111 8.38514C1.66112 8.05964 1.86335 7.43722 2.36209 7.39724L7.88034 6.95485C8.0906 6.93799 8.27375 6.80492 8.35476 6.61016L10.4807 1.4987Z" stroke="#E2C889" stroke-width="2" stroke-linecap="round" stroke-linejoin="round"/>
</svg>
