<svg width="20" height="16" viewBox="0 0 20 16" fill="none" xmlns="http://www.w3.org/2000/svg">
<path d="M16.9419 1.75625C15.6473 1.16937 14.263 0.742861 12.8157 0.5C12.638 0.811339 12.4304 1.2301 12.2872 1.56322C10.7488 1.33906 9.22445 1.33906 7.7143 1.56322C7.57116 1.2301 7.3588 0.811339 7.17947 0.5C5.73067 0.742861 4.3448 1.17094 3.05016 1.75935C0.438869 5.58252 -0.269009 9.31073 0.0849306 12.986C1.81688 14.2391 3.49534 15.0003 5.14548 15.4985C5.55291 14.9552 5.91628 14.3777 6.22931 13.769C5.63313 13.5495 5.06211 13.2787 4.52256 12.9642C4.6657 12.8615 4.80571 12.754 4.94098 12.6435C8.23183 14.1348 11.8074 14.1348 15.0589 12.6435C15.1958 12.754 15.3358 12.8615 15.4774 12.9642C14.9362 13.2802 14.3637 13.5511 13.7675 13.7706C14.0805 14.3777 14.4423 14.9567 14.8513 15.5C16.503 15.0019 18.1831 14.2407 19.915 12.986C20.3303 8.72542 19.2056 5.03146 16.9419 1.75625ZM6.67765 10.7257C5.68977 10.7257 4.87963 9.8322 4.87963 8.7441C4.87963 7.65599 5.67247 6.76091 6.67765 6.76091C7.68285 6.76091 8.49297 7.65442 8.47567 8.7441C8.47723 9.8322 7.68285 10.7257 6.67765 10.7257ZM13.3223 10.7257C12.3344 10.7257 11.5243 9.8322 11.5243 8.7441C11.5243 7.65599 12.3171 6.76091 13.3223 6.76091C14.3275 6.76091 15.1376 7.65442 15.1203 8.7441C15.1203 9.8322 14.3275 10.7257 13.3223 10.7257Z" fill="#838383"/>
</svg>
