<svg
  width="18"
  height="24"
  viewBox="0 0 18 24"
  fill="none"
  xmlns="http://www.w3.org/2000/svg"
>
  <path
    d="M5.81677 0.340332L1.44154 0.340332C0.645401 0.340332 1.44335e-08 0.890678 3.22381e-08 1.56956L1.30084e-07 5.30039C1.47888e-07 5.97927 0.645401 6.52962 1.44154 6.52962L5.81677 6.52962C6.61291 6.52962 7.25831 5.97927 7.25831 5.30039L7.25831 1.56956C7.25831 0.890678 6.61291 0.340332 5.81677 0.340332Z"
    fill="#EB5B4F"
  />
  <path
    d="M5.81677 8.74683L1.44154 8.74683C0.645401 8.74683 1.44335e-08 9.29717 3.22381e-08 9.97606L1.30084e-07 13.7069C1.47888e-07 14.3858 0.645401 14.9361 1.44154 14.9361L5.81677 14.9361C6.61291 14.9361 7.25831 14.3858 7.25831 13.7069L7.25831 9.97606C7.25831 9.29717 6.61291 8.74683 5.81677 8.74683Z"
    fill="#EB5B4F"
  />
  <path
    d="M5.81677 17.4304L1.44154 17.4304C0.645401 17.4304 1.44335e-08 17.9808 3.22381e-08 18.6597L1.30084e-07 22.3905C1.47888e-07 23.0694 0.645401 23.6197 1.44154 23.6197L5.81677 23.6197C6.61291 23.6197 7.25831 23.0694 7.25831 22.3905L7.25831 18.6597C7.25831 17.9808 6.61291 17.4304 5.81677 17.4304Z"
    fill="#EB5B4F"
  />
  <path
    d="M15.8701 0.340332L11.4296 0.340332C10.6216 0.340332 9.96655 0.890678 9.96655 1.56956L9.96655 5.30039C9.96655 5.97927 10.6216 6.52962 11.4296 6.52962L15.8701 6.52962C16.6782 6.52962 17.3332 5.97927 17.3332 5.30039L17.3332 1.56956C17.3332 0.890678 16.6782 0.340332 15.8701 0.340332Z"
    fill="#EB5B4F"
  />
</svg>