<svg width="24" height="24" viewBox="0 0 24 24" fill="none" xmlns="http://www.w3.org/2000/svg">
<path fill-rule="evenodd" clip-rule="evenodd" d="M3.36937 10.832C8.73698 8.44042 12.3103 6.8513 14.1046 6.08035C19.2115 3.89335 20.285 3.51573 20.9751 3.5C21.1285 3.5 21.4659 3.53147 21.6959 3.72027C21.8799 3.87761 21.926 4.08215 21.9566 4.23949C21.9873 4.39683 22.018 4.72724 21.9873 4.97898C21.7112 7.9684 20.515 15.2217 19.9016 18.5573C19.6409 19.9733 19.1348 20.4453 18.644 20.4925C17.5705 20.5869 16.7577 19.7688 15.7302 19.0765C14.1046 17.9908 13.1998 17.3143 11.6201 16.2444C9.79516 15.0172 10.976 14.3406 12.0189 13.2392C12.2949 12.956 17.0031 8.55056 17.0951 8.15721C17.1104 8.11001 17.1104 7.9212 17.0031 7.8268C16.8957 7.7324 16.7424 7.76387 16.6197 7.79533C16.451 7.8268 13.8745 9.58899 8.85967 13.0662C8.12354 13.5854 7.46409 13.8371 6.86598 13.8214C6.20654 13.8057 4.94898 13.4438 3.99815 13.1291C2.84795 12.7515 1.92779 12.5469 2.00447 11.8861C2.05048 11.54 2.51056 11.1938 3.36937 10.832Z" fill="#838383"/>
</svg>
