<svg width="24" height="24" viewBox="0 0 24 24" fill="none" xmlns="http://www.w3.org/2000/svg">
<path fill-rule="evenodd" clip-rule="evenodd" d="M19.8136 5.41816C20.6746 5.64864 21.3513 6.32526 21.5818 7.18627C21.9983 8.74529 22 12 22 12C22 12 22 15.2547 21.5818 16.8138C21.3513 17.6748 20.6746 18.3514 19.8136 18.5818C18.2545 19 12 19 12 19C12 19 5.74547 19 4.18636 18.5818C3.32532 18.3514 2.64867 17.6748 2.41818 16.8138C2 15.2547 2 12 2 12C2 12 2 8.74529 2.41818 7.18627C2.64867 6.32526 3.32532 5.64864 4.18636 5.41816C5.74547 5 12 5 12 5C12 5 18.2545 5 19.8136 5.41816ZM15.3333 12.2223L9.77777 15V9.44446L15.3333 12.2223Z" fill="#838383"/>
</svg>
